<svg xmlns="http://www.w3.org/2000/svg" xmlns:xlink="http://www.w3.org/1999/xlink" width="79" height="81" viewBox="0 0 79 81">
    <defs>
        <linearGradient id="c" x1="50%" x2="50%" y1="0%" y2="99.021%">
            <stop offset="0%" stop-opacity="0"/>
            <stop offset="80%" stop-opacity=".02"/>
            <stop offset="100%" stop-opacity=".04"/>
        </linearGradient>
        <linearGradient id="d" x1="50%" x2="50%" y1="0%" y2="100%">
            <stop offset="0%" stop-color="#FFF" stop-opacity=".12"/>
            <stop offset="20%" stop-color="#FFF" stop-opacity=".06"/>
            <stop offset="100%" stop-color="#FFF" stop-opacity="0"/>
        </linearGradient>
        <path id="b" d="M254.5 222c-20.71 0-37.5-16.79-37.5-37.5s16.79-37.5 37.5-37.5 37.5 16.79 37.5 37.5-16.79 37.5-37.5 37.5zM244 167.227v33.576c0 1.088.77 1.537 1.722.976l27.553-16.25c.956-.565.951-1.471 0-2.032l-28.414-16.759c-.47-.277-.861-.062-.861.49z"/>
        <filter id="a" width="116%" height="116%" x="-8%" y="-5.3%" filterUnits="objectBoundingBox">
            <feOffset dy="2" in="SourceAlpha" result="shadowOffsetOuter1"/>
            <feGaussianBlur in="shadowOffsetOuter1" result="shadowBlurOuter1" stdDeviation="1"/>
            <feComposite in="shadowBlurOuter1" in2="SourceAlpha" operator="out" result="shadowBlurOuter1"/>
            <feColorMatrix in="shadowBlurOuter1" result="shadowMatrixOuter1" values="0 0 0 0 0 0 0 0 0 0 0 0 0 0 0 0 0 0 0.24 0"/>
            <feOffset in="SourceAlpha" result="shadowOffsetOuter2"/>
            <feGaussianBlur in="shadowOffsetOuter2" result="shadowBlurOuter2" stdDeviation="1"/>
            <feComposite in="shadowBlurOuter2" in2="SourceAlpha" operator="out" result="shadowBlurOuter2"/>
            <feColorMatrix in="shadowBlurOuter2" result="shadowMatrixOuter2" values="0 0 0 0 0 0 0 0 0 0 0 0 0 0 0 0 0 0 0.12 0"/>
            <feMerge>
                <feMergeNode in="shadowMatrixOuter1"/>
                <feMergeNode in="shadowMatrixOuter2"/>
            </feMerge>
        </filter>
    </defs>
    <g fill="none" fill-rule="evenodd" opacity=".6" transform="translate(-215 -145)">
        <use fill="#000" filter="url(#a)" xlink:href="#b"/>
        <path fill="#FFF" stroke="url(#c)" stroke-linejoin="square" stroke-width=".5" d="M254.5 221.75c20.573 0 37.25-16.677 37.25-37.25s-16.677-37.25-37.25-37.25-37.25 16.677-37.25 37.25 16.677 37.25 37.25 37.25zm-10.75-54.523c0-.743.601-1.08 1.238-.704l28.414 16.759c1.117.658 1.118 1.802 0 2.461l-27.553 16.252c-1.114.657-2.099.094-2.099-1.192v-33.576z"/>
        <path stroke="url(#d)" stroke-linejoin="square" stroke-width=".5" d="M254.5 221.75c20.573 0 37.25-16.677 37.25-37.25s-16.677-37.25-37.25-37.25-37.25 16.677-37.25 37.25 16.677 37.25 37.25 37.25zm-10.75-54.523c0-.743.601-1.08 1.238-.704l28.414 16.759c1.117.658 1.118 1.802 0 2.461l-27.553 16.252c-1.114.657-2.099.094-2.099-1.192v-33.576z"/>
    </g>
</svg>
