<?xml version="1.0" encoding="utf-8"?>
<!-- Generator: Adobe Illustrator 23.0.6, SVG Export Plug-In . SVG Version: 6.00 Build 0)  -->
<svg version="1.1" id="Layer_1" xmlns="http://www.w3.org/2000/svg" xmlns:xlink="http://www.w3.org/1999/xlink" x="0px" y="0px"
	 viewBox="0 0 612 792" style="enable-background:new 0 0 612 792;" xml:space="preserve">
<style type="text/css">
	.st0{clip-path:url(#SVGID_2_);}
	.st1{fill:#242829;}
	.st2{fill:#FFFFFF;}
	.st3{font-family:'Univers-Light';}
	.st4{font-size:20px;}
	.st5{fill:#25282A;}
	.st6{clip-path:url(#SVGID_4_);fill:#25282A;}
	.st7{clip-path:url(#SVGID_6_);fill:#25282A;}
	.st8{clip-path:url(#SVGID_8_);fill:#242829;}
	.st9{clip-path:url(#SVGID_10_);fill:#242829;}
	.st10{clip-path:url(#SVGID_10_);fill:#FFFFFF;}
	.st11{clip-path:url(#SVGID_12_);}
	.st12{clip-path:url(#SVGID_12_);fill:#242829;}
	.st13{clip-path:url(#SVGID_14_);fill:#242829;}
	.st14{clip-path:url(#SVGID_14_);fill:none;stroke:#242829;stroke-width:0.5547;stroke-miterlimit:10;}
	.st15{fill:none;stroke:#242829;stroke-width:0.5547;stroke-miterlimit:10;}
	.st16{clip-path:url(#SVGID_16_);fill:#242829;}
	.st17{clip-path:url(#SVGID_16_);fill:none;stroke:#242829;stroke-width:0.5547;stroke-miterlimit:10;}
	.st18{clip-path:url(#SVGID_18_);fill:#242829;}
</style>
<g>
	<g>
		<defs>
			<rect id="SVGID_1_" width="612" height="792"/>
		</defs>
		<clipPath id="SVGID_2_">
			<use xlink:href="#SVGID_1_"  style="overflow:visible;"/>
		</clipPath>
		<g class="st0">
			<polygon class="st1" points="-8,72 -8,396 621,396 621,72 -8,72 			"/>
		</g>
	</g>
	<g>
		<path class="st2" d="M85.42,194.92c-3.08,0-5.83,0.11-7.81,1.15c-2.03,1.1-3.46,3.13-3.74,7.04H73.1v-8.96h33.27v8.96h-0.77
			c-0.38-3.79-1.71-5.88-3.68-6.98c-2.03-1.1-4.73-1.21-7.81-1.21v37.01h3.3v0.71H82.12v-0.71h3.3V194.92z"/>
		<path class="st2" d="M110.44,192.72h-3.3V192h11.16v17.82c0.72-0.72,1.87-1.71,3.24-2.42c1.38-0.66,3.08-1.21,4.89-1.21
			c5.11,0,7.86,2.91,7.86,8.63v17.1h3.3v0.71h-14.08v-0.71h2.97v-16.39c0-1.32,0-3.02-0.44-4.4c-0.5-1.38-1.48-2.42-3.46-2.42
			c-1.04,0-1.92,0.38-2.69,0.83c-0.77,0.49-1.38,1.04-1.6,1.48v20.9h2.97v0.71h-14.13v-0.71h3.3V192.72z"/>
	</g>
	<g>
		<path class="st2" d="M162.04,226.76c-0.44,1.32-1.48,2.91-3.13,4.23c-1.65,1.32-3.96,2.31-7.04,2.31c-3.74,0-6.54-1.71-8.47-4.23
			c-1.92-2.53-2.86-5.83-2.86-9.13c0-3.9,1.32-7.37,3.57-9.9c2.2-2.53,5.39-4.01,8.96-4.01c1.98,0,4.23,0.44,6.05,1.48
			c1.76,1.1,3.02,2.69,3.02,5.11c0,2.64-1.81,4.18-4.4,5.06c-2.58,0.88-5.83,1.1-8.85,1.26c0.06,2.04,0.49,4.62,1.59,6.65
			c1.04,2.03,2.64,3.57,5.22,3.57c1.54,0,2.86-0.44,3.79-1.04c0.93-0.6,1.59-1.32,1.87-1.76L162.04,226.76z M155.49,211.63
			c0-2.91-1.26-4.89-2.53-4.89c-0.88,0-1.81,0.88-2.64,2.75s-1.43,4.78-1.48,8.74C153.73,217.85,155.49,216.2,155.49,211.63z"/>
		<path class="st2" d="M178.87,194.15h15.45v0.72h-3.3v22.27c0,3.96,0,7.86,0.88,10.72c0.88,2.86,2.58,4.73,5.94,4.73
			c3.57,0,7.2-1.21,9.62-4.34c2.14-2.8,3.08-6.1,3.08-10.67v-22.71h-3.3v-0.72h7.42v0.72h-3.3v21.45c0,5.28-0.66,8.91-3.35,12.37
			c-2.14,2.8-5.44,4.67-10.45,4.67c-5.11,0-8.47-1.04-10.78-2.8s-3.46-4.23-4.01-7.15c-0.55-2.91-0.6-6.27-0.6-9.73v-18.81h-3.3
			V194.15z"/>
		<path class="st2" d="M227.93,231.93h3.3v0.71h-14.46v-0.71h3.3v-39.21h-3.3V192h11.16V231.93z"/>
	</g>
	<g>
		<path class="st2" d="M247.95,231.38c-0.83,0.88-2.86,1.92-5.22,1.92c-1.59,0-3.57-0.17-5.11-1.32c-1.54-1.15-2.69-3.3-2.69-7.2
			V207.4h-2.47v-0.71h2.47v-3.57c1.59,0,3.24-0.49,4.56-1.37c1.32-0.83,2.25-2.03,2.47-3.41h0.82v8.36h5v0.71h-5v20.68
			c0,2.58,1.1,3.63,2.47,3.63c1.1,0,1.87-0.49,2.25-0.88c0.06,0.11,0.17,0.22,0.22,0.27C247.89,231.27,248,231.38,247.95,231.38z"/>
		<path class="st2" d="M250.42,207.4v-0.71h11.16v25.24h3.3v0.71h-14.46v-0.71h3.3V207.4H250.42z M257.68,193.98
			c-2.36,0-4.23,1.87-4.23,4.23c0,2.25,1.87,4.18,4.23,4.18s4.18-1.92,4.18-4.18C261.86,195.85,260.05,193.98,257.68,193.98z"/>
		<path class="st2" d="M294.09,210.53c0.6-0.71,1.76-1.81,3.3-2.69c1.48-0.88,3.35-1.59,5.39-1.59c5.11,0.06,7.92,2.97,7.92,8.69
			v16.99h3.3v0.71h-14.13v-0.71h2.97v-16.33c0-4.34-0.55-6.76-3.85-6.76c-1.15,0-2.2,0.5-2.97,1.1s-1.38,1.32-1.59,1.59
			c0.22,0.88,0.38,2.31,0.38,3.41v16.99h2.97v0.71h-13.75v-0.71h2.91v-16.33c0-4.34-0.55-6.76-3.85-6.76
			c-1.04,0-1.92,0.39-2.64,0.88c-0.71,0.5-1.37,1.04-1.65,1.48v20.73h2.92v0.71h-14.08v-0.71h3.3V207.4h-3.3v-0.71h10.89
			c0,1.26,0.06,2.09,0.11,2.8c0,0.38,0,0.55,0,0.6c0.71-0.71,1.92-1.76,3.35-2.53c1.43-0.77,3.13-1.32,4.95-1.32
			C290.51,206.24,292.93,207.67,294.09,210.53z"/>
		<path class="st2" d="M321.92,209.32c0.38-0.17,0.94-0.22,1.21-0.22c1.76,0,3.25,1.43,3.25,3.19s-1.49,3.24-3.25,3.24
			s-3.19-1.48-3.19-3.24c0-1.04,0.5-2.58,1.87-3.9c1.32-1.32,3.52-2.36,6.98-2.36c3.02,0,5.39,0.71,6.98,2.31s2.47,4.23,2.47,7.97
			v11.93c0,1.04,0.05,1.76,0.22,2.25c0.11,0.49,0.44,0.77,0.94,0.77c0.66,0,1.1-0.49,1.32-1.1l0.71,0.27
			c-0.05,0.38-0.38,1.04-1.21,1.65c-0.82,0.66-2.03,1.21-3.96,1.21c-2.8,0-4.34-1.32-5.17-2.64c-1.26,1.48-3.68,2.64-6.27,2.64
			c-2.2,0-4.29-0.5-5.83-1.6c-1.54-1.1-2.53-2.8-2.53-5.22c0-2.64,1.59-4.51,4.12-5.83c2.53-1.32,5.99-2.03,9.79-2.42v-5.99
			c0-2.03-0.49-3.41-1.15-4.12c-0.71-0.71-1.76-0.99-2.7-0.99C324.78,207.12,322.96,208.06,321.92,209.32z M327.53,231.71
			c1.1,0,2.8-1.1,3.24-1.81c-0.22-0.83-0.38-2.09-0.38-3.9V219c-4.01,0.88-5.99,3.85-5.99,7.59c0,1.32,0.28,2.58,0.77,3.52
			C325.6,231.05,326.43,231.71,327.53,231.71z"/>
	</g>
	<g>
		<path class="st2" d="M357.5,231.38c-0.83,0.88-2.86,1.92-5.22,1.92c-1.59,0-3.57-0.17-5.11-1.32c-1.54-1.15-2.69-3.3-2.69-7.2
			V207.4h-2.47v-0.71h2.47v-3.57c1.59,0,3.24-0.49,4.56-1.37c1.32-0.83,2.25-2.03,2.47-3.41h0.83v8.36h5v0.71h-5v20.68
			c0,2.58,1.1,3.63,2.47,3.63c1.1,0,1.87-0.49,2.25-0.88c0.06,0.11,0.17,0.22,0.22,0.27C357.45,231.27,357.55,231.38,357.5,231.38z"
			/>
		<path class="st2" d="M380.65,226.76c-0.44,1.32-1.48,2.91-3.13,4.23c-1.65,1.32-3.96,2.31-7.04,2.31c-3.74,0-6.54-1.71-8.47-4.23
			c-1.92-2.53-2.86-5.83-2.86-9.13c0-3.9,1.32-7.37,3.57-9.9c2.2-2.53,5.39-4.01,8.96-4.01c1.98,0,4.23,0.44,6.05,1.48
			c1.76,1.1,3.02,2.69,3.02,5.11c0,2.64-1.82,4.18-4.4,5.06c-2.58,0.88-5.83,1.1-8.85,1.26c0.06,2.04,0.5,4.62,1.6,6.65
			c1.04,2.03,2.64,3.57,5.22,3.57c1.54,0,2.86-0.44,3.79-1.04c0.93-0.6,1.59-1.32,1.87-1.76L380.65,226.76z M374.11,211.63
			c0-2.91-1.26-4.89-2.53-4.89c-0.88,0-1.82,0.88-2.64,2.75c-0.83,1.87-1.43,4.78-1.49,8.74
			C372.35,217.85,374.11,216.2,374.11,211.63z"/>
	</g>
	<g>
	</g>
	<g>
		<path class="st2" d="M112.8,275.8v0.71h-3.3v10.5c-2.2,1.7-5,2.8-7.64,3.52c-2.69,0.71-5.33,0.99-7.31,0.99
			c-5.94,0-10.94-1.87-14.57-5.22c-3.63-3.35-5.77-8.08-5.77-13.97c0-6.65,2.31-11.93,6.1-15.56c3.79-3.63,9.13-5.55,15.12-5.55
			c4.62,0,8.58,1.21,11.49,2.97v8.63h-0.77c-0.71-7.7-4.18-10.83-10.28-10.83c-3.68,0-6.21,1.48-7.97,3.68
			c-1.81,2.2-2.8,5.17-3.41,8.19c-0.6,3.08-0.71,6.16-0.71,8.63c0,4.45,0.49,9.02,2.14,12.48c1.65,3.46,4.4,5.77,9.18,5.77
			c2.64,0,4.07-0.93,4.78-2.47c0.71-1.48,0.82-3.46,0.82-5.61v-6.16h-3.3v-0.71H112.8z"/>
		<path class="st2" d="M139.98,289.93h3.3v0.71h-10.89c-0.06-1.26-0.11-2.09-0.11-2.8c0-0.38,0-0.55,0-0.6
			c-0.72,0.83-1.87,1.71-3.3,2.47c-1.43,0.77-3.19,1.38-5,1.38c-5.11,0-7.86-2.86-7.86-8.58v-17.1h-3.3v-0.71h11.16v17.16
			c0,1.26,0.06,2.97,0.55,4.4c0.44,1.43,1.38,2.58,3.13,2.58c1.04,0,2.03-0.49,2.8-1.1s1.38-1.21,1.65-1.59v-20.73h-2.97v-0.71
			h10.83V289.93z"/>
		<path class="st2" d="M146.3,265.41v-0.71h11.16v25.24h3.3v0.71H146.3v-0.71h3.3v-24.53H146.3z M153.56,251.99
			c-2.36,0-4.23,1.87-4.23,4.23c0,2.25,1.87,4.18,4.23,4.18s4.18-1.92,4.18-4.18C157.74,253.86,155.93,251.99,153.56,251.99z"/>
		<path class="st2" d="M182.27,250.72h-3.3v-0.71h11.16v39.92h3.3v0.71h-10.94l-0.22-2.58c-0.44,0.66-1.15,1.48-2.25,2.14
			c-1.1,0.66-2.58,1.1-4.4,1.1c-2.58,0-5.5-0.83-7.7-2.92c-2.25-2.09-3.85-5.39-3.85-10.61c0-4.89,1.87-8.36,4.29-10.56
			c2.42-2.2,5.28-3.19,7.42-3.19c1.76,0,3.19,0.44,4.29,1.04c1.1,0.66,1.81,1.38,2.2,2.03V250.72z M182.27,268.6
			c-0.6-1.26-1.71-2.58-3.63-2.58c-1.76,0-3.19,1.21-4.23,3.35c-1.1,2.14-1.7,5.22-1.7,8.96c0,3.96,0.71,6.65,1.87,8.41
			c1.1,1.76,2.58,2.47,4.12,2.47c1.71,0,2.91-1.32,3.57-2.58V268.6z"/>
	</g>
	<g>
		<path class="st2" d="M217.58,284.76c-0.44,1.32-1.48,2.91-3.13,4.23c-1.65,1.32-3.96,2.31-7.04,2.31c-3.74,0-6.54-1.71-8.47-4.23
			c-1.92-2.53-2.86-5.83-2.86-9.13c0-3.9,1.32-7.37,3.57-9.9c2.2-2.53,5.39-4.01,8.96-4.01c1.98,0,4.23,0.44,6.05,1.48
			c1.76,1.1,3.02,2.69,3.02,5.11c0,2.64-1.81,4.18-4.4,5.06c-2.58,0.88-5.83,1.1-8.85,1.26c0.06,2.04,0.49,4.62,1.59,6.65
			c1.04,2.03,2.64,3.57,5.22,3.57c1.54,0,2.86-0.44,3.79-1.04c0.93-0.6,1.59-1.32,1.87-1.76L217.58,284.76z M211.04,269.64
			c0-2.91-1.26-4.89-2.53-4.89c-0.88,0-1.81,0.88-2.64,2.75s-1.43,4.78-1.48,8.74C209.28,275.86,211.04,274.21,211.04,269.64z"/>
		<path class="st2" d="M249.26,289.38c-0.83,0.88-2.86,1.92-5.22,1.92c-1.59,0-3.57-0.17-5.11-1.32c-1.54-1.15-2.69-3.3-2.69-7.2
			v-17.38h-2.47v-0.71h2.47v-3.57c1.59,0,3.24-0.49,4.56-1.37c1.32-0.83,2.25-2.03,2.47-3.41h0.82v8.36h5v0.71h-5v20.68
			c0,2.58,1.1,3.63,2.47,3.63c1.1,0,1.87-0.49,2.25-0.88c0.06,0.11,0.17,0.22,0.22,0.27C249.21,289.27,249.32,289.38,249.26,289.38z
			"/>
		<path class="st2" d="M279.35,277.18c0,3.96-1.15,7.48-3.46,10.01c-2.31,2.53-5.83,4.12-10.39,4.12s-7.86-1.48-10.06-3.9
			c-2.2-2.42-3.3-5.88-3.3-9.84c0-3.9,1.32-7.26,3.74-9.68c2.36-2.42,5.72-3.85,9.9-3.85c4.01,0,7.48,1.32,9.84,3.57
			S279.35,273.22,279.35,277.18z M265.71,264.8c-1.65,0-2.91,1.04-3.74,3.19c-0.88,2.15-1.32,5.17-1.32,9.02
			c0,3.79,0.27,7.2,1.1,9.62c0.83,2.42,2.09,3.9,4.07,3.9c1.81,0,3.08-1.48,3.85-3.96c0.77-2.42,1.04-5.83,1.04-9.57
			c0-3.79-0.38-6.76-1.1-8.96C268.84,265.9,267.52,264.8,265.71,264.8z"/>
	</g>
	<g>
		<path class="st2" d="M308.11,291.36l-0.88,0.06l-14.35-38.55h-2.97v-0.72h15.56v0.72h-3.3l9.79,26.23l3.79-9.62l-6.21-16.61v-0.72
			h12.59v0.72h-3.3l9.79,26.23l10.23-26.23h-3.3v-0.72h7.15v0.72h-2.97l-14.96,38.49l-0.88,0.06l-7.75-20.79L308.11,291.36z"/>
	</g>
	<g>
		<path class="st2" d="M357.78,284.76c-0.44,1.32-1.48,2.91-3.13,4.23c-1.65,1.32-3.96,2.31-7.04,2.31c-3.74,0-6.54-1.71-8.47-4.23
			c-1.92-2.53-2.86-5.83-2.86-9.13c0-3.9,1.32-7.37,3.57-9.9c2.2-2.53,5.39-4.01,8.96-4.01c1.98,0,4.23,0.44,6.05,1.48
			c1.76,1.1,3.02,2.69,3.02,5.11c0,2.64-1.82,4.18-4.4,5.06c-2.58,0.88-5.83,1.1-8.85,1.26c0.06,2.04,0.5,4.62,1.6,6.65
			c1.04,2.03,2.64,3.57,5.22,3.57c1.54,0,2.86-0.44,3.79-1.04c0.93-0.6,1.59-1.32,1.87-1.76L357.78,284.76z M351.23,269.64
			c0-2.91-1.26-4.89-2.53-4.89c-0.88,0-1.82,0.88-2.64,2.75c-0.83,1.87-1.43,4.78-1.49,8.74
			C349.47,275.86,351.23,274.21,351.23,269.64z"/>
		<path class="st2" d="M372.35,267.11c0.38-0.6,1.16-1.37,2.31-2.03c1.16-0.6,2.75-1.04,4.56-1.04c2.04,0,4.95,0.99,7.26,3.19
			c2.31,2.2,4.07,5.66,4.07,10.56c0,5.06-1.82,8.41-4.18,10.56c-2.36,2.14-5.22,2.97-7.37,2.97c-2.03,0-3.57-0.55-4.62-1.27
			c-1.1-0.66-1.76-1.48-2.04-1.98l-0.22,2.58h-10.94v-0.71h3.3v-39.21h-3.3v-0.71h11.16V267.11z M372.35,286.63
			c0.66,1.27,1.87,2.58,3.63,2.58c2.47,0,4.01-1.92,4.89-4.4c0.82-2.42,1.04-5.44,1.04-7.48c0-3.08-0.55-5.94-1.49-7.97
			s-2.31-3.35-4.07-3.35c-1.81,0-3.41,1.32-4.01,2.58V286.63z"/>
		<path class="st2" d="M410.85,265.85v6.32h-0.71c-0.22-1.92-0.88-3.79-1.98-5.17c-1.16-1.37-2.75-2.31-4.78-2.31
			c-1.92,0-3.79,1.48-3.79,3.46c0,1.48,0.61,2.36,1.65,3.13s2.53,1.32,4.23,1.98c2.47,0.94,4.34,1.98,5.61,3.46
			c1.26,1.54,1.87,3.41,1.87,6.05c0,2.8-1.21,4.95-3.02,6.43s-4.29,2.31-6.76,2.31c-2.92,0-6.05-0.66-8.52-1.92v-8.08h0.77
			c0.17,2.15,0.82,4.45,2.14,6.21c1.26,1.76,3.02,3.02,5.39,3.02c1.16,0,2.37-0.38,3.25-1.1c0.88-0.66,1.48-1.59,1.48-2.86
			c0-1.54-0.88-2.64-1.98-3.52c-1.16-0.82-2.64-1.32-3.79-1.76c-2.2-0.82-4.07-1.76-5.39-3.13c-1.32-1.32-2.09-3.08-2.09-5.44
			c0-2.64,0.93-4.89,2.53-6.49c1.54-1.54,3.79-2.53,6.27-2.53C405.9,263.92,408.65,264.75,410.85,265.85z"/>
		<path class="st2" d="M416.25,265.41v-0.71h11.16v25.24h3.3v0.71h-14.46v-0.71h3.3v-24.53H416.25z M423.5,251.99
			c-2.36,0-4.23,1.87-4.23,4.23c0,2.25,1.87,4.18,4.23,4.18s4.18-1.92,4.18-4.18C427.68,253.86,425.87,251.99,423.5,251.99z"/>
		<path class="st2" d="M448.97,289.38c-0.83,0.88-2.86,1.92-5.22,1.92c-1.59,0-3.57-0.17-5.11-1.32c-1.54-1.15-2.69-3.3-2.69-7.2
			v-17.38h-2.47v-0.71h2.47v-3.57c1.59,0,3.24-0.49,4.56-1.37c1.32-0.83,2.25-2.03,2.47-3.41h0.83v8.36h5v0.71h-5v20.68
			c0,2.58,1.1,3.63,2.47,3.63c1.1,0,1.87-0.49,2.25-0.88c0.06,0.11,0.17,0.22,0.22,0.27C448.91,289.27,449.02,289.38,448.97,289.38z
			"/>
	</g>
	<g>
		<path class="st2" d="M472.67,284.76c-0.44,1.32-1.48,2.91-3.13,4.23c-1.65,1.32-3.96,2.31-7.04,2.31c-3.74,0-6.54-1.71-8.47-4.23
			c-1.92-2.53-2.86-5.83-2.86-9.13c0-3.9,1.32-7.37,3.57-9.9c2.2-2.53,5.39-4.01,8.96-4.01c1.98,0,4.23,0.44,6.05,1.48
			c1.76,1.1,3.02,2.69,3.02,5.11c0,2.64-1.82,4.18-4.4,5.06c-2.58,0.88-5.83,1.1-8.85,1.26c0.06,2.04,0.5,4.62,1.6,6.65
			c1.04,2.03,2.64,3.57,5.22,3.57c1.54,0,2.86-0.44,3.79-1.04c0.93-0.6,1.59-1.32,1.87-1.76L472.67,284.76z M466.12,269.64
			c0-2.91-1.26-4.89-2.53-4.89c-0.88,0-1.82,0.88-2.64,2.75c-0.83,1.87-1.43,4.78-1.49,8.74
			C464.37,275.86,466.12,274.21,466.12,269.64z"/>
	</g>
	<g>
		<g>
			<path class="st2" d="M109.89,347.93h2.97v0.71H97.24v-0.71h3.3l-5.5-13.86H83.11l-6.32,13.86h3.3v0.71h-7.26v-0.71h2.97
				l17.93-38.88h0.71L109.89,347.93z M89.49,320.11l-6.1,13.2h11.38L89.49,320.11z"/>
		</g>
	</g>
	<g>
		<g>
			<path class="st2" d="M128.37,345.51c1.81,0,3.3-0.71,4.29-1.48c0.99-0.77,1.65-1.65,1.92-2.09l0.66,0.33
				c-0.44,1.32-1.54,3.08-3.3,4.51c-1.76,1.43-4.18,2.53-7.42,2.53c-2.91,0-5.88-1.21-8.08-3.52c-2.25-2.31-3.74-5.66-3.74-10.01
				c0-4.45,1.59-7.97,4.07-10.28s5.77-3.46,9.29-3.46c2.64,0,4.67,0.6,6.05,1.65c1.38,1.04,2.09,2.42,2.09,3.96
				c0,1.92-1.26,3.46-3.19,3.46c-1.81,0-3.24-1.48-3.24-3.3c0-1.1,0.6-2.14,1.48-2.69c0.88-0.55,2.03-0.6,3.13-0.11
				c-0.71-0.82-2.47-1.87-4.18-1.87c-2.58,0-4.4,1.76-5.5,4.01c-1.16,2.25-1.65,5.11-1.65,7.15c0,2.2,0.49,5.06,1.65,7.26
				C123.81,343.81,125.68,345.51,128.37,345.51z"/>
		</g>
		<g>
			<path class="st2" d="M153.12,345.51c1.81,0,3.3-0.71,4.29-1.48c0.99-0.77,1.65-1.65,1.92-2.09l0.66,0.33
				c-0.44,1.32-1.54,3.08-3.3,4.51c-1.76,1.43-4.18,2.53-7.42,2.53c-2.91,0-5.88-1.21-8.08-3.52c-2.25-2.31-3.74-5.66-3.74-10.01
				c0-4.45,1.59-7.97,4.07-10.28s5.77-3.46,9.29-3.46c2.64,0,4.67,0.6,6.05,1.65c1.37,1.04,2.09,2.42,2.09,3.96
				c0,1.92-1.26,3.46-3.19,3.46c-1.81,0-3.24-1.48-3.24-3.3c0-1.1,0.6-2.14,1.48-2.69c0.88-0.55,2.03-0.6,3.13-0.11
				c-0.72-0.82-2.48-1.87-4.18-1.87c-2.58,0-4.4,1.76-5.5,4.01c-1.15,2.25-1.65,5.11-1.65,7.15c0,2.2,0.5,5.06,1.65,7.26
				C148.56,343.81,150.43,345.51,153.12,345.51z"/>
		</g>
		<g>
			<path class="st2" d="M183.7,342.76c-0.44,1.32-1.48,2.91-3.13,4.23c-1.65,1.32-3.96,2.31-7.04,2.31c-3.74,0-6.54-1.71-8.47-4.23
				c-1.92-2.53-2.86-5.83-2.86-9.13c0-3.9,1.32-7.37,3.57-9.9c2.2-2.53,5.39-4.01,8.96-4.01c1.98,0,4.23,0.44,6.05,1.48
				c1.76,1.1,3.02,2.69,3.02,5.11c0,2.64-1.81,4.18-4.4,5.06c-2.58,0.88-5.83,1.1-8.85,1.26c0.06,2.04,0.49,4.62,1.59,6.65
				c1.04,2.03,2.64,3.57,5.22,3.57c1.54,0,2.86-0.44,3.79-1.04c0.93-0.6,1.59-1.32,1.87-1.76L183.7,342.76z M177.16,327.64
				c0-2.91-1.26-4.89-2.53-4.89c-0.88,0-1.81,0.88-2.64,2.75s-1.43,4.78-1.48,8.74C175.4,333.86,177.16,332.21,177.16,327.64z"/>
		</g>
	</g>
	<g>
		<g>
			<path class="st2" d="M203.83,323.85v6.32h-0.71c-0.22-1.92-0.88-3.79-1.98-5.17c-1.15-1.37-2.75-2.31-4.78-2.31
				c-1.92,0-3.79,1.48-3.79,3.46c0,1.48,0.6,2.36,1.65,3.13c1.04,0.77,2.53,1.32,4.23,1.98c2.47,0.94,4.34,1.98,5.61,3.46
				c1.27,1.54,1.87,3.41,1.87,6.05c0,2.8-1.21,4.95-3.02,6.43c-1.81,1.48-4.29,2.31-6.76,2.31c-2.91,0-6.05-0.66-8.52-1.92v-8.08
				h0.77c0.17,2.15,0.82,4.45,2.15,6.21c1.26,1.76,3.02,3.02,5.39,3.02c1.15,0,2.36-0.38,3.24-1.1c0.88-0.66,1.48-1.59,1.48-2.86
				c0-1.54-0.88-2.64-1.98-3.52c-1.15-0.82-2.64-1.32-3.79-1.76c-2.2-0.82-4.07-1.76-5.39-3.13c-1.32-1.32-2.09-3.08-2.09-5.44
				c0-2.64,0.93-4.89,2.53-6.49c1.54-1.54,3.79-2.53,6.27-2.53C198.88,321.92,201.63,322.75,203.83,323.85z"/>
		</g>
		<g>
			<path class="st2" d="M226.21,323.85v6.32h-0.71c-0.22-1.92-0.88-3.79-1.98-5.17c-1.15-1.37-2.75-2.31-4.78-2.31
				c-1.92,0-3.79,1.48-3.79,3.46c0,1.48,0.6,2.36,1.65,3.13c1.04,0.77,2.53,1.32,4.23,1.98c2.47,0.94,4.34,1.98,5.61,3.46
				c1.27,1.54,1.87,3.41,1.87,6.05c0,2.8-1.21,4.95-3.02,6.43c-1.81,1.48-4.29,2.31-6.76,2.31c-2.91,0-6.05-0.66-8.52-1.92v-8.08
				h0.77c0.17,2.15,0.82,4.45,2.15,6.21c1.26,1.76,3.02,3.02,5.39,3.02c1.15,0,2.36-0.38,3.24-1.1c0.88-0.66,1.48-1.59,1.48-2.86
				c0-1.54-0.88-2.64-1.98-3.52c-1.15-0.82-2.64-1.32-3.79-1.76c-2.2-0.82-4.07-1.76-5.39-3.13c-1.32-1.32-2.09-3.08-2.09-5.44
				c0-2.64,0.93-4.89,2.53-6.49c1.54-1.54,3.79-2.53,6.27-2.53C221.26,321.92,224.01,322.75,226.21,323.85z"/>
		</g>
		<g>
			<path class="st2" d="M231.61,323.41v-0.71h11.16v25.24h3.3v0.71h-14.46v-0.71h3.3v-24.53H231.61z M238.86,309.99
				c-2.36,0-4.23,1.87-4.23,4.23c0,2.25,1.87,4.18,4.23,4.18s4.18-1.92,4.18-4.18C243.04,311.86,241.23,309.99,238.86,309.99z"/>
		</g>
		<g>
			<path class="st2" d="M259.98,325.11c0.38-0.6,1.15-1.37,2.31-2.03c1.15-0.6,2.75-1.04,4.56-1.04c2.03,0,4.95,0.99,7.26,3.19
				s4.07,5.66,4.07,10.56c0,5.06-1.81,8.41-4.18,10.56c-2.36,2.14-5.22,2.97-7.37,2.97c-2.03,0-3.57-0.55-4.62-1.27
				c-1.1-0.66-1.76-1.48-2.03-1.98l-0.22,2.58h-10.94v-0.71h3.3v-39.21h-3.3v-0.71h11.16V325.11z M259.98,344.63
				c0.66,1.27,1.87,2.58,3.63,2.58c2.47,0,4.01-1.92,4.89-4.4c0.83-2.42,1.04-5.44,1.04-7.48c0-3.08-0.55-5.94-1.48-7.97
				c-0.93-2.03-2.31-3.35-4.07-3.35c-1.81,0-3.41,1.32-4.01,2.58V344.63z"/>
		</g>
		<g>
			<path class="st2" d="M281.49,323.41v-0.71h11.16v25.24h3.3v0.71h-14.46v-0.71h3.3v-24.53H281.49z M288.75,309.99
				c-2.36,0-4.23,1.87-4.23,4.23c0,2.25,1.87,4.18,4.23,4.18s4.18-1.92,4.18-4.18C292.93,311.86,291.11,309.99,288.75,309.99z"/>
		</g>
		<g>
			<path class="st2" d="M309.87,347.93h3.3v0.71H298.7v-0.71h3.3v-39.21h-3.3v-0.71h11.16V347.93z"/>
		</g>
		<g>
			<path class="st2" d="M315.92,323.41v-0.71h11.16v25.24h3.3v0.71h-14.46v-0.71h3.3v-24.53H315.92z M323.18,309.99
				c-2.36,0-4.23,1.87-4.23,4.23c0,2.25,1.87,4.18,4.23,4.18s4.18-1.92,4.18-4.18C327.36,311.86,325.54,309.99,323.18,309.99z"/>
		</g>
		<g>
			<path class="st2" d="M348.64,347.38c-0.83,0.88-2.86,1.92-5.22,1.92c-1.59,0-3.57-0.17-5.11-1.32c-1.54-1.15-2.69-3.3-2.69-7.2
				v-17.38h-2.47v-0.71h2.47v-3.57c1.59,0,3.24-0.49,4.56-1.37c1.32-0.83,2.25-2.03,2.47-3.41h0.83v8.36h5v0.71h-5v20.68
				c0,2.58,1.1,3.63,2.47,3.63c1.1,0,1.87-0.49,2.25-0.88c0.06,0.11,0.17,0.22,0.22,0.27C348.59,347.27,348.7,347.38,348.64,347.38z
				"/>
		</g>
		<g>
			<path class="st2" d="M353.54,357.17c0-1.7,1.37-3.35,3.3-3.35c1.71,0,3.3,1.37,3.3,3.35c0,0.94-0.38,1.7-0.77,2.09
				c0.6-0.39,1.43-1.21,2.42-2.48c0.99-1.26,2.04-3.3,3.19-5.99c-0.06-0.17-0.28-0.66-0.66-1.54c-0.38-0.82-0.83-1.92-1.43-3.24
				c-0.61-1.32-1.21-2.8-1.92-4.4s-1.43-3.24-2.14-4.95c-1.71-3.9-3.68-8.36-5.83-13.25h-2.97v-0.71h14.9v0.71h-3.3l7.42,16.99
				l6.05-16.99h-3.3v-0.71h7.15v0.71h-2.97c-0.27,0.77-0.66,1.87-1.16,3.24c-0.93,2.8-2.2,6.21-3.52,9.9
				c-1.37,3.74-2.64,7.15-3.74,9.95c-1.1,2.86-1.98,4.78-3.24,7.31s-2.58,4.62-4.23,5.77c-0.83,0.6-1.76,0.88-2.75,0.88
				C355.3,360.47,353.54,359.15,353.54,357.17z"/>
		</g>
	</g>
	<g>
		<path class="st1" d="M76.94,433.41h-4.66v-1.2h10.56v1.2h-4.58l-0.02,13.24h-1.28L76.94,433.41z"/>
		<path class="st1" d="M86.06,438.13h0.04c0.7-1.24,1.84-1.82,3.14-1.82c3.28,0,3.54,2.9,3.54,4.06v6.28h-1.2v-6.48
			c0-1.74-1-2.76-2.64-2.76c-1.98,0-2.88,1.66-2.88,3.46v5.78h-1.2v-14.44h1.2V438.13z"/>
		<path class="st1" d="M96.82,441.92c0.04,2.14,1.02,3.94,3.48,3.94c1.42,0,2.6-1.02,2.9-2.4h1.26c-0.62,2.4-2.12,3.5-4.54,3.5
			c-3,0-4.4-2.58-4.4-5.32c0-2.72,1.5-5.32,4.48-5.32c3.36,0,4.58,2.46,4.58,5.6H96.82z M103.28,440.82
			c-0.14-1.94-1.18-3.4-3.26-3.4c-1.96,0-3,1.64-3.16,3.4H103.28z"/>
		<path class="st1" d="M113.94,437.71h-2v-1.1h2v-2.14l1.2-0.52v2.66h2.28v1.1h-2.28v6.72c-0.02,0.92,0.46,1.42,1.38,1.42
			c0.36,0,0.72-0.02,1.04-0.12v1.04c-0.38,0.1-0.82,0.18-1.22,0.18c-2.54,0-2.4-1.62-2.4-2.98V437.71z"/>
		<path class="st1" d="M128.52,441.63c0,2.64-1.48,5.32-4.68,5.32s-4.68-2.68-4.68-5.32s1.48-5.32,4.68-5.32
			S128.52,438.99,128.52,441.63z M123.84,437.41c-2.42,0-3.38,2.36-3.38,4.22s0.96,4.22,3.38,4.22c2.42,0,3.38-2.36,3.38-4.22
			S126.26,437.41,123.84,437.41z"/>
		<path class="st1" d="M139.78,441.63c0,2.64-1.48,5.32-4.68,5.32s-4.68-2.68-4.68-5.32s1.48-5.32,4.68-5.32
			S139.78,438.99,139.78,441.63z M135.1,437.41c-2.42,0-3.38,2.36-3.38,4.22s0.96,4.22,3.38,4.22c2.42,0,3.38-2.36,3.38-4.22
			S137.52,437.41,135.1,437.41z"/>
		<path class="st1" d="M143.62,446.66h-1.2v-14.44h1.2V446.66z"/>
		<path class="st1" d="M150.32,436.31c1.9,0,3.5,0.66,3.66,2.78h-1.3c-0.12-1.26-1.24-1.68-2.48-1.68c-1.12,0-2.26,0.44-2.26,1.62
			c0,1.48,1.94,1.34,4.66,2.3c1.04,0.36,1.7,1.26,1.7,2.34c0,2.26-2.1,3.28-4.22,3.28c-1.74,0-3.74-0.82-3.78-3.04h1.3
			c0.1,1.5,1.42,1.94,2.78,1.94c1.28,0,2.62-0.6,2.62-2c0-1.44-1.58-1.68-3.18-2.04c-1.58-0.38-3.18-0.84-3.18-2.7
			C146.64,437.03,148.56,436.31,150.32,436.31z"/>
		<path class="st1" d="M159.18,445.04l-1.44,4.1h-1.04l0.86-4.1H159.18z"/>
		<path class="st1" d="M169.38,437.71h-2v-1.1h2v-2.14l1.2-0.52v2.66h2.28v1.1h-2.28v6.72c-0.02,0.92,0.46,1.42,1.38,1.42
			c0.36,0,0.72-0.02,1.04-0.12v1.04c-0.38,0.1-0.82,0.18-1.22,0.18c-2.54,0-2.4-1.62-2.4-2.98V437.71z"/>
		<path class="st1" d="M176.64,433.71h-1.4v-1.5h1.4V433.71z M176.54,436.61v10.04h-1.2v-10.04H176.54z"/>
		<path class="st1" d="M180.9,450.5h-1.2v-11.62c0.02-0.78-0.06-1.58-0.1-2.26h1.24l0.06,1.48l0.04,0.04
			c0.7-1.18,2.1-1.82,3.44-1.82c2.98,0,4.12,2.68,4.12,5.28c0,2.52-1.14,5.36-4.06,5.36c-1.46,0-2.68-0.66-3.5-1.86h-0.04V450.5z
			 M184.32,445.86c2.3,0,2.88-2.54,2.88-4.4c0-1.92-0.78-4.04-3.06-4.04c-2.34,0-3.24,1.94-3.24,3.98
			C180.9,443.68,181.7,445.86,184.32,445.86z"/>
		<path class="st1" d="M194.5,436.31c1.9,0,3.5,0.66,3.66,2.78h-1.3c-0.12-1.26-1.24-1.68-2.48-1.68c-1.12,0-2.26,0.44-2.26,1.62
			c0,1.48,1.94,1.34,4.66,2.3c1.04,0.36,1.7,1.26,1.7,2.34c0,2.26-2.1,3.28-4.22,3.28c-1.74,0-3.74-0.82-3.78-3.04h1.3
			c0.1,1.5,1.42,1.94,2.78,1.94c1.28,0,2.62-0.6,2.62-2c0-1.44-1.58-1.68-3.18-2.04c-1.58-0.38-3.18-0.84-3.18-2.7
			C190.82,437.03,192.74,436.31,194.5,436.31z"/>
		<path class="st1" d="M203.36,445.04l-1.44,4.1h-1.04l0.86-4.1H203.36z"/>
		<path class="st1" d="M218.38,439.58c-0.12-1.64-0.96-2.16-2.38-2.16c-1.26,0-2.3,0.38-2.46,1.74h-1.28
			c0.3-2.06,1.84-2.84,3.76-2.84c2.22,0,3.6,1.02,3.56,3.32v4.76c-0.02,0.78,0.06,1.58,0.1,2.26h-1.24l-0.04-1.48h-0.04l-0.06,0.14
			c-0.44,0.84-1.78,1.64-3.14,1.64c-1.86,0-3.34-1.14-3.34-3.1c0-1.36,0.82-2.4,2.02-2.9c1.34-0.58,3.08-0.38,4.54-0.46V439.58z
			 M215.38,445.86c2.62,0,3.12-2.16,3-4.26c-1.7,0.06-5.26-0.26-5.26,2.26C213.12,445.22,214.16,445.86,215.38,445.86z"/>
		<path class="st1" d="M224.04,446.66h-1.2v-7.78c0-0.78-0.06-1.58-0.1-2.26h1.24l0.06,1.48l0.04,0.04c0.7-1.24,1.84-1.82,3.14-1.82
			c3.28,0,3.54,2.9,3.54,4.06v6.28h-1.2v-6.48c0-1.74-1-2.76-2.64-2.76c-1.98,0-2.88,1.66-2.88,3.46V446.66z"/>
		<path class="st1" d="M241.02,445.18l-0.04-0.08c-0.82,1.2-2.04,1.86-3.44,1.86c-2.98,0-4.12-2.84-4.12-5.36
			c0-2.6,1.14-5.28,4.12-5.28c1.34,0,2.74,0.64,3.44,1.82l0.04-0.04v-5.88h1.2v12.18c0,0.78,0.06,1.58,0.1,2.26h-1.24L241.02,445.18
			z M237.74,437.41c-2.28,0-3.02,2.12-3.02,4.04c0,1.86,0.54,4.4,2.84,4.4c2.62,0,3.42-2.18,3.42-4.46
			C240.98,439.35,240.08,437.41,237.74,437.41z"/>
		<path class="st1" d="M252.26,446.66h-1.2v-7.78c0.02-0.78-0.06-1.58-0.1-2.26h1.24l0.06,1.48h0.04c0.36-1.02,1.26-1.74,2.26-1.78
			c0.4-0.02,0.8,0,1.2,0.02v1.16c-0.24-0.02-0.5-0.08-0.74-0.08c-1.78,0-2.72,1.28-2.76,3.2V446.66z"/>
		<path class="st1" d="M258.56,441.92c0.04,2.14,1.02,3.94,3.48,3.94c1.42,0,2.6-1.02,2.9-2.4h1.26c-0.62,2.4-2.12,3.5-4.54,3.5
			c-3,0-4.4-2.58-4.4-5.32c0-2.72,1.5-5.32,4.48-5.32c3.36,0,4.58,2.46,4.58,5.6H258.56z M265.02,440.82
			c-0.14-1.94-1.18-3.4-3.26-3.4c-1.96,0-3,1.64-3.16,3.4H265.02z"/>
		<path class="st1" d="M272.46,436.31c1.9,0,3.5,0.66,3.66,2.78h-1.3c-0.12-1.26-1.24-1.68-2.48-1.68c-1.12,0-2.26,0.44-2.26,1.62
			c0,1.48,1.94,1.34,4.66,2.3c1.04,0.36,1.7,1.26,1.7,2.34c0,2.26-2.1,3.28-4.22,3.28c-1.74,0-3.74-0.82-3.78-3.04h1.3
			c0.1,1.5,1.42,1.94,2.78,1.94c1.28,0,2.62-0.6,2.62-2c0-1.44-1.58-1.68-3.18-2.04c-1.58-0.38-3.18-0.84-3.18-2.7
			C268.78,437.03,270.7,436.31,272.46,436.31z"/>
		<path class="st1" d="M287.9,441.63c0,2.64-1.48,5.32-4.68,5.32s-4.68-2.68-4.68-5.32s1.48-5.32,4.68-5.32
			S287.9,438.99,287.9,441.63z M283.22,437.41c-2.42,0-3.38,2.36-3.38,4.22s0.96,4.22,3.38,4.22c2.42,0,3.38-2.36,3.38-4.22
			S285.64,437.41,283.22,437.41z"/>
		<path class="st1" d="M297.24,436.61h1.2v7.78c0,0.78,0.06,1.58,0.1,2.26h-1.24l-0.06-1.48l-0.04-0.04
			c-0.7,1.24-1.84,1.82-3.14,1.82c-3.28,0-3.54-2.9-3.54-4.06v-6.28h1.2v6.48c0,1.74,1,2.76,2.64,2.76c1.98,0,2.88-1.66,2.88-3.46
			V436.61z"/>
		<path class="st1" d="M302.98,446.66h-1.2v-7.78c0.02-0.78-0.06-1.58-0.1-2.26h1.24l0.06,1.48h0.04c0.36-1.02,1.26-1.74,2.26-1.78
			c0.4-0.02,0.8,0,1.2,0.02v1.16c-0.24-0.02-0.5-0.08-0.74-0.08c-1.78,0-2.72,1.28-2.76,3.2V446.66z"/>
		<path class="st1" d="M314.92,439.69c-0.1-1.54-1.08-2.28-2.74-2.28c-1.84,0-2.98,1.92-2.98,4.2c0,2.3,1.14,4.24,2.98,4.24
			c1.56,0,2.64-0.96,2.74-2.34h1.3c-0.32,2.3-1.64,3.44-3.92,3.44c-3,0-4.4-2.58-4.4-5.32c0-2.72,1.5-5.32,4.48-5.32
			c2.06,0,3.74,1.24,3.84,3.38H314.92z"/>
		<path class="st1" d="M319.42,441.92c0.04,2.14,1.02,3.94,3.48,3.94c1.42,0,2.6-1.02,2.9-2.4h1.26c-0.62,2.4-2.12,3.5-4.54,3.5
			c-3,0-4.4-2.58-4.4-5.32c0-2.72,1.5-5.32,4.48-5.32c3.36,0,4.58,2.46,4.58,5.6H319.42z M325.88,440.82
			c-0.14-1.94-1.18-3.4-3.26-3.4c-1.96,0-3,1.64-3.16,3.4H325.88z"/>
		<path class="st1" d="M333.32,436.31c1.9,0,3.5,0.66,3.66,2.78h-1.3c-0.12-1.26-1.24-1.68-2.48-1.68c-1.12,0-2.26,0.44-2.26,1.62
			c0,1.48,1.94,1.34,4.66,2.3c1.04,0.36,1.7,1.26,1.7,2.34c0,2.26-2.1,3.28-4.22,3.28c-1.74,0-3.74-0.82-3.78-3.04h1.3
			c0.1,1.5,1.42,1.94,2.78,1.94c1.28,0,2.62-0.6,2.62-2c0-1.44-1.58-1.68-3.18-2.04c-1.58-0.38-3.18-0.84-3.18-2.7
			C329.64,437.03,331.56,436.31,333.32,436.31z"/>
		<path class="st1" d="M345.84,436.61l3.38,8.4l3.36-8.4h1.3l-5.54,13.88h-1.32l1.52-3.84l-4.16-10.04H345.84z"/>
		<path class="st1" d="M364.6,441.63c0,2.64-1.48,5.32-4.68,5.32c-3.2,0-4.68-2.68-4.68-5.32s1.48-5.32,4.68-5.32
			C363.12,436.31,364.6,438.99,364.6,441.63z M359.92,437.41c-2.42,0-3.38,2.36-3.38,4.22s0.96,4.22,3.38,4.22
			c2.42,0,3.38-2.36,3.38-4.22S362.34,437.41,359.92,437.41z"/>
		<path class="st1" d="M373.94,436.61h1.2v7.78c0,0.78,0.06,1.58,0.1,2.26H374l-0.06-1.48l-0.04-0.04c-0.7,1.24-1.84,1.82-3.14,1.82
			c-3.28,0-3.54-2.9-3.54-4.06v-6.28h1.2v6.48c0,1.74,1,2.76,2.64,2.76c1.98,0,2.88-1.66,2.88-3.46V436.61z"/>
		<path class="st1" d="M385.38,446.66h-1.2v-7.78c0-0.78-0.06-1.58-0.1-2.26h1.24l0.06,1.48l0.04,0.04c0.7-1.24,1.84-1.82,3.14-1.82
			c3.28,0,3.54,2.9,3.54,4.06v6.28h-1.2v-6.48c0-1.74-1-2.76-2.64-2.76c-1.98,0-2.88,1.66-2.88,3.46V446.66z"/>
		<path class="st1" d="M396.14,441.92c0.04,2.14,1.02,3.94,3.48,3.94c1.42,0,2.6-1.02,2.9-2.4h1.26c-0.62,2.4-2.12,3.5-4.54,3.5
			c-3,0-4.4-2.58-4.4-5.32c0-2.72,1.5-5.32,4.48-5.32c3.36,0,4.58,2.46,4.58,5.6H396.14z M402.6,440.82
			c-0.14-1.94-1.18-3.4-3.26-3.4c-1.96,0-3,1.64-3.16,3.4H402.6z"/>
		<path class="st1" d="M407.4,441.92c0.04,2.14,1.02,3.94,3.48,3.94c1.42,0,2.6-1.02,2.9-2.4h1.26c-0.62,2.4-2.12,3.5-4.54,3.5
			c-3,0-4.4-2.58-4.4-5.32c0-2.72,1.5-5.32,4.48-5.32c3.36,0,4.58,2.46,4.58,5.6H407.4z M413.86,440.82
			c-0.14-1.94-1.18-3.4-3.26-3.4c-1.96,0-3,1.64-3.16,3.4H413.86z"/>
		<path class="st1" d="M424.88,445.18l-0.04-0.08c-0.82,1.2-2.04,1.86-3.44,1.86c-2.98,0-4.12-2.84-4.12-5.36
			c0-2.6,1.14-5.28,4.12-5.28c1.34,0,2.74,0.64,3.44,1.82l0.04-0.04v-5.88h1.2v12.18c0,0.78,0.06,1.58,0.1,2.26h-1.24L424.88,445.18
			z M421.6,437.41c-2.28,0-3.02,2.12-3.02,4.04c0,1.86,0.54,4.4,2.84,4.4c2.62,0,3.42-2.18,3.42-4.46
			C424.84,439.35,423.94,437.41,421.6,437.41z"/>
	</g>
	<text transform="matrix(1 0 0 1 427.4766 446.6562)" class="st1 st3 st4"> </text>
	<g>
		<path class="st1" d="M74.46,467.71h-2v-1.1h2v-2.14l1.2-0.52v2.66h2.28v1.1h-2.28v6.72c-0.02,0.92,0.46,1.42,1.38,1.42
			c0.36,0,0.72-0.02,1.04-0.12v1.04c-0.38,0.1-0.82,0.18-1.22,0.18c-2.54,0-2.4-1.62-2.4-2.98V467.71z"/>
		<path class="st1" d="M88.7,471.63c0,2.64-1.48,5.32-4.68,5.32s-4.68-2.68-4.68-5.32s1.48-5.32,4.68-5.32S88.7,468.99,88.7,471.63z
			 M84.02,467.41c-2.42,0-3.38,2.36-3.38,4.22s0.96,4.22,3.38,4.22c2.42,0,3.38-2.36,3.38-4.22S86.44,467.41,84.02,467.41z"/>
		<path class="st1" d="M102.68,469.69c-0.1-1.54-1.08-2.28-2.74-2.28c-1.84,0-2.98,1.92-2.98,4.2c0,2.3,1.14,4.24,2.98,4.24
			c1.56,0,2.64-0.96,2.74-2.34h1.3c-0.32,2.3-1.64,3.44-3.92,3.44c-3,0-4.4-2.58-4.4-5.32c0-2.72,1.5-5.32,4.48-5.32
			c2.06,0,3.74,1.24,3.84,3.38H102.68z"/>
		<path class="st1" d="M107.34,476.66h-1.2v-7.78c0.02-0.78-0.06-1.58-0.1-2.26h1.24l0.06,1.48h0.04c0.36-1.02,1.26-1.74,2.26-1.78
			c0.4-0.02,0.8,0,1.2,0.02v1.16c-0.24-0.02-0.5-0.08-0.74-0.08c-1.78,0-2.72,1.28-2.76,3.2V476.66z"/>
		<path class="st1" d="M113.3,471.92c0.04,2.14,1.02,3.94,3.48,3.94c1.42,0,2.6-1.02,2.9-2.4h1.26c-0.62,2.4-2.12,3.5-4.54,3.5
			c-3,0-4.4-2.58-4.4-5.32c0-2.72,1.5-5.32,4.48-5.32c3.36,0,4.58,2.46,4.58,5.6H113.3z M119.76,470.82
			c-0.14-1.94-1.18-3.4-3.26-3.4c-1.96,0-3,1.64-3.16,3.4H119.76z"/>
		<path class="st1" d="M129.2,469.58c-0.12-1.64-0.96-2.16-2.38-2.16c-1.26,0-2.3,0.38-2.46,1.74h-1.28
			c0.3-2.06,1.84-2.84,3.76-2.84c2.22,0,3.6,1.02,3.56,3.32v4.76c-0.02,0.78,0.06,1.58,0.1,2.26h-1.24l-0.04-1.48h-0.04l-0.06,0.14
			c-0.44,0.84-1.78,1.64-3.14,1.64c-1.86,0-3.34-1.14-3.34-3.1c0-1.36,0.82-2.4,2.02-2.9c1.34-0.58,3.08-0.38,4.54-0.46V469.58z
			 M126.2,475.86c2.62,0,3.12-2.16,3-4.26c-1.7,0.06-5.26-0.26-5.26,2.26C123.94,475.22,124.98,475.86,126.2,475.86z"/>
		<path class="st1" d="M134.18,467.71h-2v-1.1h2v-2.14l1.2-0.52v2.66h2.28v1.1h-2.28v6.72c-0.02,0.92,0.46,1.42,1.38,1.42
			c0.36,0,0.72-0.02,1.04-0.12v1.04c-0.38,0.1-0.82,0.18-1.22,0.18c-2.54,0-2.4-1.62-2.4-2.98V467.71z"/>
		<path class="st1" d="M140.48,471.92c0.04,2.14,1.02,3.94,3.48,3.94c1.42,0,2.6-1.02,2.9-2.4h1.26c-0.62,2.4-2.12,3.5-4.54,3.5
			c-3,0-4.4-2.58-4.4-5.32c0-2.72,1.5-5.32,4.48-5.32c3.36,0,4.58,2.46,4.58,5.6H140.48z M146.94,470.82
			c-0.14-1.94-1.18-3.4-3.26-3.4c-1.96,0-3,1.64-3.16,3.4H146.94z"/>
		<path class="st1" d="M161.74,469.58c-0.12-1.64-0.96-2.16-2.38-2.16c-1.26,0-2.3,0.38-2.46,1.74h-1.28
			c0.3-2.06,1.84-2.84,3.76-2.84c2.22,0,3.6,1.02,3.56,3.32v4.76c-0.02,0.78,0.06,1.58,0.1,2.26h-1.24l-0.04-1.48h-0.04l-0.06,0.14
			c-0.44,0.84-1.78,1.64-3.14,1.64c-1.86,0-3.34-1.14-3.34-3.1c0-1.36,0.82-2.4,2.02-2.9c1.34-0.58,3.08-0.38,4.54-0.46V469.58z
			 M158.74,475.86c2.62,0,3.12-2.16,3-4.26c-1.7,0.06-5.26-0.26-5.26,2.26C156.48,475.22,157.52,475.86,158.74,475.86z"/>
		<path class="st1" d="M167.06,476.66h-1.2v-7.78c0-0.78-0.06-1.58-0.1-2.26H167l0.06,1.48l0.04,0.04c0.7-1.24,1.84-1.82,3.14-1.82
			c3.28,0,3.54,2.9,3.54,4.06v6.28h-1.2v-6.48c0-1.74-1-2.76-2.64-2.76c-1.98,0-2.88,1.66-2.88,3.46V476.66z"/>
		<path class="st1" d="M180.72,476.66l5.72-14.44h1.52l5.76,14.44h-1.42l-1.54-3.9h-7.18l-1.52,3.9H180.72z M190.3,471.55
			l-3.12-8.14l-3.18,8.14H190.3z"/>
		<path class="st1" d="M199.4,462.21c4.74,0,7.44,2.44,7.44,7.22s-2.7,7.22-7.44,7.22h-3.9v-14.44H199.4z M199.72,475.46
			c4.06,0,5.72-2.38,5.72-6.02c0-4.26-2.5-6.14-6.6-6.02h-2.04v12.04H199.72z"/>
		<path class="st1" d="M208.1,476.66l5.72-14.44h1.52l5.76,14.44h-1.42l-1.54-3.9h-7.18l-1.52,3.9H208.1z M217.68,471.55l-3.12-8.14
			l-3.18,8.14H217.68z"/>
		<path class="st1" d="M234.36,469.69c-0.1-1.54-1.08-2.28-2.74-2.28c-1.84,0-2.98,1.92-2.98,4.2c0,2.3,1.14,4.24,2.98,4.24
			c1.56,0,2.64-0.96,2.74-2.34h1.3c-0.32,2.3-1.64,3.44-3.92,3.44c-3,0-4.4-2.58-4.4-5.32c0-2.72,1.5-5.32,4.48-5.32
			c2.06,0,3.74,1.24,3.84,3.38H234.36z"/>
		<path class="st1" d="M246.46,471.63c0,2.64-1.48,5.32-4.68,5.32s-4.68-2.68-4.68-5.32s1.48-5.32,4.68-5.32
			S246.46,468.99,246.46,471.63z M241.78,467.41c-2.42,0-3.38,2.36-3.38,4.22s0.96,4.22,3.38,4.22c2.42,0,3.38-2.36,3.38-4.22
			S244.2,467.41,241.78,467.41z"/>
		<path class="st1" d="M249.92,468.09l0.04,0.04c0.7-1.24,1.84-1.82,3.14-1.82c1.58,0,2.82,0.88,3.26,2.2
			c0.74-1.18,1.9-2.2,3.46-2.2c3.28,0,3.54,2.9,3.54,4.06v6.28h-1.2v-6.48c0-1.74-1-2.76-2.64-2.76c-1.98,0-2.88,1.66-2.88,3.46
			v5.78h-1.2v-6.48c0-1.74-1-2.76-2.64-2.76c-1.98,0-2.88,1.66-2.88,3.46v5.78h-1.2v-7.78c0-0.78-0.06-1.58-0.1-2.26h1.24
			L249.92,468.09z"/>
		<path class="st1" d="M267.32,480.5h-1.2v-11.62c0.02-0.78-0.06-1.58-0.1-2.26h1.24l0.06,1.48l0.04,0.04
			c0.7-1.18,2.1-1.82,3.44-1.82c2.98,0,4.12,2.68,4.12,5.28c0,2.52-1.14,5.36-4.06,5.36c-1.46,0-2.68-0.66-3.5-1.86h-0.04V480.5z
			 M270.74,475.86c2.3,0,2.88-2.54,2.88-4.4c0-1.92-0.78-4.04-3.06-4.04c-2.34,0-3.24,1.94-3.24,3.98
			C267.32,473.68,268.12,475.86,270.74,475.86z"/>
		<path class="st1" d="M278.46,476.66h-1.2v-14.44h1.2V476.66z"/>
		<path class="st1" d="M282.8,463.71h-1.4v-1.5h1.4V463.71z M282.7,466.61v10.04h-1.2v-10.04H282.7z"/>
		<path class="st1" d="M291.4,469.58c-0.12-1.64-0.96-2.16-2.38-2.16c-1.26,0-2.3,0.38-2.46,1.74h-1.28
			c0.3-2.06,1.84-2.84,3.76-2.84c2.22,0,3.6,1.02,3.56,3.32v4.76c-0.02,0.78,0.06,1.58,0.1,2.26h-1.24l-0.04-1.48h-0.04l-0.06,0.14
			c-0.44,0.84-1.78,1.64-3.14,1.64c-1.86,0-3.34-1.14-3.34-3.1c0-1.36,0.82-2.4,2.02-2.9c1.34-0.58,3.08-0.38,4.54-0.46V469.58z
			 M288.4,475.86c2.62,0,3.12-2.16,3-4.26c-1.7,0.06-5.26-0.26-5.26,2.26C286.14,475.22,287.18,475.86,288.4,475.86z"/>
		<path class="st1" d="M296.72,476.66h-1.2v-7.78c0-0.78-0.06-1.58-0.1-2.26h1.24l0.06,1.48l0.04,0.04c0.7-1.24,1.84-1.82,3.14-1.82
			c3.28,0,3.54,2.9,3.54,4.06v6.28h-1.2v-6.48c0-1.74-1-2.76-2.64-2.76c-1.98,0-2.88,1.66-2.88,3.46V476.66z"/>
		<path class="st1" d="M307.3,467.71h-2v-1.1h2v-2.14l1.2-0.52v2.66h2.28v1.1h-2.28v6.72c-0.02,0.92,0.46,1.42,1.38,1.42
			c0.36,0,0.72-0.02,1.04-0.12v1.04c-0.38,0.1-0.82,0.18-1.22,0.18c-2.54,0-2.4-1.62-2.4-2.98V467.71z"/>
		<path class="st1" d="M321.3,475.08h0.04l3.04-8.46h1.42l2.96,8.38h0.04l2.9-8.38h1.32l-3.74,10.04h-1.14l-3.08-8.66h-0.04
			l-3.14,8.66h-1.22l-3.68-10.04h1.32L321.3,475.08z"/>
		<path class="st1" d="M335.42,471.92c0.04,2.14,1.02,3.94,3.48,3.94c1.42,0,2.6-1.02,2.9-2.4h1.26c-0.62,2.4-2.12,3.5-4.54,3.5
			c-3,0-4.4-2.58-4.4-5.32c0-2.72,1.5-5.32,4.48-5.32c3.36,0,4.58,2.46,4.58,5.6H335.42z M341.88,470.82
			c-0.14-1.94-1.18-3.4-3.26-3.4c-1.96,0-3,1.64-3.16,3.4H341.88z"/>
		<path class="st1" d="M346.58,476.66h-1.24c0.04-0.68,0.1-1.48,0.1-2.26v-12.18h1.2v5.88l0.04,0.04c0.7-1.18,2.1-1.82,3.44-1.82
			c2.98,0,4.12,2.68,4.12,5.28c0,2.52-1.14,5.36-4.06,5.36c-1.46,0-2.68-0.66-3.5-1.86l-0.04,0.08L346.58,476.66z M346.64,471.44
			c0,2.28,0.8,4.42,3.42,4.42c2.3,0,2.88-2.5,2.88-4.36c0-1.92-0.78-4.08-3.06-4.08C347.54,467.41,346.64,469.39,346.64,471.44z"/>
		<path class="st1" d="M359.9,466.31c1.9,0,3.5,0.66,3.66,2.78h-1.3c-0.12-1.26-1.24-1.68-2.48-1.68c-1.12,0-2.26,0.44-2.26,1.62
			c0,1.48,1.94,1.34,4.66,2.3c1.04,0.36,1.7,1.26,1.7,2.34c0,2.26-2.1,3.28-4.22,3.28c-1.74,0-3.74-0.82-3.78-3.04h1.3
			c0.1,1.5,1.42,1.94,2.78,1.94c1.28,0,2.62-0.6,2.62-2c0-1.44-1.58-1.68-3.18-2.04c-1.58-0.38-3.18-0.84-3.18-2.7
			C356.22,467.03,358.14,466.31,359.9,466.31z"/>
		<path class="st1" d="M367.68,463.71h-1.4v-1.5h1.4V463.71z M367.58,466.61v10.04h-1.2v-10.04H367.58z"/>
		<path class="st1" d="M371.46,467.71h-2v-1.1h2v-2.14l1.2-0.52v2.66h2.28v1.1h-2.28v6.72c-0.02,0.92,0.46,1.42,1.38,1.42
			c0.36,0,0.72-0.02,1.04-0.12v1.04c-0.38,0.1-0.82,0.18-1.22,0.18c-2.54,0-2.4-1.62-2.4-2.98V467.71z"/>
		<path class="st1" d="M377.76,471.92c0.04,2.14,1.02,3.94,3.48,3.94c1.42,0,2.6-1.02,2.9-2.4h1.26c-0.62,2.4-2.12,3.5-4.54,3.5
			c-3,0-4.4-2.58-4.4-5.32c0-2.72,1.5-5.32,4.48-5.32c3.36,0,4.58,2.46,4.58,5.6H377.76z M384.22,470.82
			c-0.14-1.94-1.18-3.4-3.26-3.4c-1.96,0-3,1.64-3.16,3.4H384.22z"/>
		<path class="st1" d="M394.2,467.71h-2v-1.1h2v-2.14l1.2-0.52v2.66h2.28v1.1h-2.28v6.72c-0.02,0.92,0.46,1.42,1.38,1.42
			c0.36,0,0.72-0.02,1.04-0.12v1.04c-0.38,0.1-0.82,0.18-1.22,0.18c-2.54,0-2.4-1.62-2.4-2.98V467.71z"/>
		<path class="st1" d="M401,468.13h0.04c0.7-1.24,1.84-1.82,3.14-1.82c3.28,0,3.54,2.9,3.54,4.06v6.28h-1.2v-6.48
			c0-1.74-1-2.76-2.64-2.76c-1.98,0-2.88,1.66-2.88,3.46v5.78h-1.2v-14.44h1.2V468.13z"/>
		<path class="st1" d="M416.4,469.58c-0.12-1.64-0.96-2.16-2.38-2.16c-1.26,0-2.3,0.38-2.46,1.74h-1.28
			c0.3-2.06,1.84-2.84,3.76-2.84c2.22,0,3.6,1.02,3.56,3.32v4.76c-0.02,0.78,0.06,1.58,0.1,2.26h-1.24l-0.04-1.48h-0.04l-0.06,0.14
			c-0.44,0.84-1.78,1.64-3.14,1.64c-1.86,0-3.34-1.14-3.34-3.1c0-1.36,0.82-2.4,2.02-2.9c1.34-0.58,3.08-0.38,4.54-0.46V469.58z
			 M413.4,475.86c2.62,0,3.12-2.16,3-4.26c-1.7,0.06-5.26-0.26-5.26,2.26C411.14,475.22,412.18,475.86,413.4,475.86z"/>
		<path class="st1" d="M421.38,467.71h-2v-1.1h2v-2.14l1.2-0.52v2.66h2.28v1.1h-2.28v6.72c-0.02,0.92,0.46,1.42,1.38,1.42
			c0.36,0,0.72-0.02,1.04-0.12v1.04c-0.38,0.1-0.82,0.18-1.22,0.18c-2.54,0-2.4-1.62-2.4-2.98V467.71z"/>
	</g>
	<text transform="matrix(1 0 0 1 425.5781 476.6562)" class="st1 st3 st4"> </text>
	<g>
		<path class="st1" d="M79.94,499.69c-0.1-1.54-1.08-2.28-2.74-2.28c-1.84,0-2.98,1.92-2.98,4.2c0,2.3,1.14,4.24,2.98,4.24
			c1.56,0,2.64-0.96,2.74-2.34h1.3c-0.32,2.3-1.64,3.44-3.92,3.44c-3,0-4.4-2.58-4.4-5.32c0-2.72,1.5-5.32,4.48-5.32
			c2.06,0,3.74,1.24,3.84,3.38H79.94z"/>
		<path class="st1" d="M89.28,499.58c-0.12-1.64-0.96-2.16-2.38-2.16c-1.26,0-2.3,0.38-2.46,1.74h-1.28
			c0.3-2.06,1.84-2.84,3.76-2.84c2.22,0,3.6,1.02,3.56,3.32v4.76c-0.02,0.78,0.06,1.58,0.1,2.26h-1.24l-0.04-1.48h-0.04l-0.06,0.14
			c-0.44,0.84-1.78,1.64-3.14,1.64c-1.86,0-3.34-1.14-3.34-3.1c0-1.36,0.82-2.4,2.02-2.9c1.34-0.58,3.08-0.38,4.54-0.46V499.58z
			 M86.28,505.86c2.62,0,3.12-2.16,3-4.26c-1.7,0.06-5.26-0.26-5.26,2.26C84.02,505.22,85.06,505.86,86.28,505.86z"/>
		<path class="st1" d="M94.8,506.66h-1.2v-7.78c0-0.78-0.06-1.58-0.1-2.26h1.24l0.06,1.48l0.04,0.04c0.7-1.24,1.84-1.82,3.14-1.82
			c3.28,0,3.54,2.9,3.54,4.06v6.28h-1.2v-6.48c0-1.74-1-2.76-2.64-2.76c-1.98,0-2.88,1.66-2.88,3.46V506.66z"/>
		<path class="st1" d="M111.22,506.66h-1.24c0.04-0.68,0.1-1.48,0.1-2.26v-12.18h1.2v5.88l0.04,0.04c0.7-1.18,2.1-1.82,3.44-1.82
			c2.98,0,4.12,2.68,4.12,5.28c0,2.52-1.14,5.36-4.06,5.36c-1.46,0-2.68-0.66-3.5-1.86l-0.04,0.08L111.22,506.66z M111.28,501.44
			c0,2.28,0.8,4.42,3.42,4.42c2.3,0,2.88-2.5,2.88-4.36c0-1.92-0.78-4.08-3.06-4.08C112.18,497.41,111.28,499.39,111.28,501.44z"/>
		<path class="st1" d="M122.1,501.92c0.04,2.14,1.02,3.94,3.48,3.94c1.42,0,2.6-1.02,2.9-2.4h1.26c-0.62,2.4-2.12,3.5-4.54,3.5
			c-3,0-4.4-2.58-4.4-5.32c0-2.72,1.5-5.32,4.48-5.32c3.36,0,4.58,2.46,4.58,5.6H122.1z M128.56,500.82
			c-0.14-1.94-1.18-3.4-3.26-3.4c-1.96,0-3,1.64-3.16,3.4H128.56z"/>
		<path class="st1" d="M144.8,496.61h1.2v7.78c0,0.78,0.06,1.58,0.1,2.26h-1.24l-0.06-1.48l-0.04-0.04
			c-0.7,1.24-1.84,1.82-3.14,1.82c-3.28,0-3.54-2.9-3.54-4.06v-6.28h1.2v6.48c0,1.74,1,2.76,2.64,2.76c1.98,0,2.88-1.66,2.88-3.46
			V496.61z"/>
		<path class="st1" d="M152.54,496.31c1.9,0,3.5,0.66,3.66,2.78h-1.3c-0.12-1.26-1.24-1.68-2.48-1.68c-1.12,0-2.26,0.44-2.26,1.62
			c0,1.48,1.94,1.34,4.66,2.3c1.04,0.36,1.7,1.26,1.7,2.34c0,2.26-2.1,3.28-4.22,3.28c-1.74,0-3.74-0.82-3.78-3.04h1.3
			c0.1,1.5,1.42,1.94,2.78,1.94c1.28,0,2.62-0.6,2.62-2c0-1.44-1.58-1.68-3.18-2.04c-1.58-0.38-3.18-0.84-3.18-2.7
			C148.86,497.03,150.78,496.31,152.54,496.31z"/>
		<path class="st1" d="M159.9,501.92c0.04,2.14,1.02,3.94,3.48,3.94c1.42,0,2.6-1.02,2.9-2.4h1.26c-0.62,2.4-2.12,3.5-4.54,3.5
			c-3,0-4.4-2.58-4.4-5.32c0-2.72,1.5-5.32,4.48-5.32c3.36,0,4.58,2.46,4.58,5.6H159.9z M166.36,500.82
			c-0.14-1.94-1.18-3.4-3.26-3.4c-1.96,0-3,1.64-3.16,3.4H166.36z"/>
		<path class="st1" d="M177.24,505.18l-0.04-0.08c-0.82,1.2-2.04,1.86-3.44,1.86c-2.98,0-4.12-2.84-4.12-5.36
			c0-2.6,1.14-5.28,4.12-5.28c1.34,0,2.74,0.64,3.44,1.82l0.04-0.04v-5.88h1.2v12.18c0,0.78,0.06,1.58,0.1,2.26h-1.24L177.24,505.18
			z M173.96,497.41c-2.28,0-3.02,2.12-3.02,4.04c0,1.86,0.54,4.4,2.84,4.4c2.62,0,3.42-2.18,3.42-4.46
			C177.2,499.35,176.3,497.41,173.96,497.41z"/>
		<path class="st1" d="M187.94,506.66h-1.24c0.04-0.68,0.1-1.48,0.1-2.26v-12.18h1.2v5.88l0.04,0.04c0.7-1.18,2.1-1.82,3.44-1.82
			c2.98,0,4.12,2.68,4.12,5.28c0,2.52-1.14,5.36-4.06,5.36c-1.46,0-2.68-0.66-3.5-1.86l-0.04,0.08L187.94,506.66z M188,501.44
			c0,2.28,0.8,4.42,3.42,4.42c2.3,0,2.88-2.5,2.88-4.36c0-1.92-0.78-4.08-3.06-4.08C188.9,497.41,188,499.39,188,501.44z"/>
		<path class="st1" d="M198.14,496.61l3.38,8.4l3.36-8.4h1.3l-5.54,13.88h-1.32l1.52-3.84l-4.16-10.04H198.14z"/>
		<path class="st1" d="M214.68,510.5h-1.2v-11.62c0.02-0.78-0.06-1.58-0.1-2.26h1.24l0.06,1.48l0.04,0.04
			c0.7-1.18,2.1-1.82,3.44-1.82c2.98,0,4.12,2.68,4.12,5.28c0,2.52-1.14,5.36-4.06,5.36c-1.46,0-2.68-0.66-3.5-1.86h-0.04V510.5z
			 M218.1,505.86c2.3,0,2.88-2.54,2.88-4.4c0-1.92-0.78-4.04-3.06-4.04c-2.34,0-3.24,1.94-3.24,3.98
			C214.68,503.68,215.48,505.86,218.1,505.86z"/>
		<path class="st1" d="M225.5,501.92c0.04,2.14,1.02,3.94,3.48,3.94c1.42,0,2.6-1.02,2.9-2.4h1.26c-0.62,2.4-2.12,3.5-4.54,3.5
			c-3,0-4.4-2.58-4.4-5.32c0-2.72,1.5-5.32,4.48-5.32c3.36,0,4.58,2.46,4.58,5.6H225.5z M231.96,500.82
			c-0.14-1.94-1.18-3.4-3.26-3.4c-1.96,0-3,1.64-3.16,3.4H231.96z"/>
		<path class="st1" d="M244.56,501.63c0,2.64-1.48,5.32-4.68,5.32s-4.68-2.68-4.68-5.32s1.48-5.32,4.68-5.32
			S244.56,498.99,244.56,501.63z M239.88,497.41c-2.42,0-3.38,2.36-3.38,4.22s0.96,4.22,3.38,4.22c2.42,0,3.38-2.36,3.38-4.22
			S242.3,497.41,239.88,497.41z"/>
		<path class="st1" d="M248.04,510.5h-1.2v-11.62c0.02-0.78-0.06-1.58-0.1-2.26h1.24l0.06,1.48l0.04,0.04
			c0.7-1.18,2.1-1.82,3.44-1.82c2.98,0,4.12,2.68,4.12,5.28c0,2.52-1.14,5.36-4.06,5.36c-1.46,0-2.68-0.66-3.5-1.86h-0.04V510.5z
			 M251.46,505.86c2.3,0,2.88-2.54,2.88-4.4c0-1.92-0.78-4.04-3.06-4.04c-2.34,0-3.24,1.94-3.24,3.98
			C248.04,503.68,248.84,505.86,251.46,505.86z"/>
		<path class="st1" d="M259.38,506.66h-1.2v-14.44h1.2V506.66z"/>
		<path class="st1" d="M263.3,501.92c0.04,2.14,1.02,3.94,3.48,3.94c1.42,0,2.6-1.02,2.9-2.4h1.26c-0.62,2.4-2.12,3.5-4.54,3.5
			c-3,0-4.4-2.58-4.4-5.32c0-2.72,1.5-5.32,4.48-5.32c3.36,0,4.58,2.46,4.58,5.6H263.3z M269.76,500.82
			c-0.14-1.94-1.18-3.4-3.26-3.4c-1.96,0-3,1.64-3.16,3.4H269.76z"/>
		<path class="st1" d="M287.92,501.63c0,2.64-1.48,5.32-4.68,5.32s-4.68-2.68-4.68-5.32s1.48-5.32,4.68-5.32
			S287.92,498.99,287.92,501.63z M283.24,497.41c-2.42,0-3.38,2.36-3.38,4.22s0.96,4.22,3.38,4.22c2.42,0,3.38-2.36,3.38-4.22
			S285.66,497.41,283.24,497.41z"/>
		<path class="st1" d="M291.26,506.66v-8.94h-2.02v-1.1h2.02v-2.14c0-1.72,0.7-2.5,2.42-2.5c0.38,0,0.78,0.14,1.14,0.22v0.96
			c-0.24-0.04-0.5-0.08-0.74-0.08c-1.64,0-1.68,0.82-1.62,2.26v1.28h2.28v1.1h-2.28v8.94H291.26z"/>
		<path class="st1" d="M308.3,499.58c-0.12-1.64-0.96-2.16-2.38-2.16c-1.26,0-2.3,0.38-2.46,1.74h-1.28
			c0.3-2.06,1.84-2.84,3.76-2.84c2.22,0,3.6,1.02,3.56,3.32v4.76c-0.02,0.78,0.06,1.58,0.1,2.26h-1.24l-0.04-1.48h-0.04l-0.06,0.14
			c-0.44,0.84-1.78,1.64-3.14,1.64c-1.86,0-3.34-1.14-3.34-3.1c0-1.36,0.82-2.4,2.02-2.9c1.34-0.58,3.08-0.38,4.54-0.46V499.58z
			 M305.3,505.86c2.62,0,3.12-2.16,3-4.26c-1.7,0.06-5.26-0.26-5.26,2.26C303.04,505.22,304.08,505.86,305.3,505.86z"/>
		<path class="st1" d="M313.84,506.66h-1.2v-14.44h1.2V506.66z"/>
		<path class="st1" d="M318.28,506.66h-1.2v-14.44h1.2V506.66z"/>
		<path class="st1" d="M332.74,499.58c-0.12-1.64-0.96-2.16-2.38-2.16c-1.26,0-2.3,0.38-2.46,1.74h-1.28
			c0.3-2.06,1.84-2.84,3.76-2.84c2.22,0,3.6,1.02,3.56,3.32v4.76c-0.02,0.78,0.06,1.58,0.1,2.26h-1.24l-0.04-1.48h-0.04l-0.06,0.14
			c-0.44,0.84-1.78,1.64-3.14,1.64c-1.86,0-3.34-1.14-3.34-3.1c0-1.36,0.82-2.4,2.02-2.9c1.34-0.58,3.08-0.38,4.54-0.46V499.58z
			 M329.74,505.86c2.62,0,3.12-2.16,3-4.26c-1.7,0.06-5.26-0.26-5.26,2.26C327.48,505.22,328.52,505.86,329.74,505.86z"/>
		<path class="st1" d="M338,506.66h-1.24c0.04-0.68,0.1-1.48,0.1-2.26v-12.18h1.2v5.88l0.04,0.04c0.7-1.18,2.1-1.82,3.44-1.82
			c2.98,0,4.12,2.68,4.12,5.28c0,2.52-1.14,5.36-4.06,5.36c-1.46,0-2.68-0.66-3.5-1.86l-0.04,0.08L338,506.66z M338.06,501.44
			c0,2.28,0.8,4.42,3.42,4.42c2.3,0,2.88-2.5,2.88-4.36c0-1.92-0.78-4.08-3.06-4.08C338.96,497.41,338.06,499.39,338.06,501.44z"/>
		<path class="st1" d="M349.5,493.71h-1.4v-1.5h1.4V493.71z M349.4,496.61v10.04h-1.2v-10.04H349.4z"/>
		<path class="st1" d="M353.84,506.66h-1.2v-14.44h1.2V506.66z"/>
		<path class="st1" d="M358.38,493.71h-1.4v-1.5h1.4V493.71z M358.28,496.61v10.04h-1.2v-10.04H358.28z"/>
		<path class="st1" d="M362.36,497.71h-2v-1.1h2v-2.14l1.2-0.52v2.66h2.28v1.1h-2.28v6.72c-0.02,0.92,0.46,1.42,1.38,1.42
			c0.36,0,0.72-0.02,1.04-0.12v1.04c-0.38,0.1-0.82,0.18-1.22,0.18c-2.54,0-2.4-1.62-2.4-2.98V497.71z"/>
		<path class="st1" d="M369.48,493.71h-1.4v-1.5h1.4V493.71z M369.38,496.61v10.04h-1.2v-10.04H369.38z"/>
		<path class="st1" d="M373.3,501.92c0.04,2.14,1.02,3.94,3.48,3.94c1.42,0,2.6-1.02,2.9-2.4h1.26c-0.62,2.4-2.12,3.5-4.54,3.5
			c-3,0-4.4-2.58-4.4-5.32c0-2.72,1.5-5.32,4.48-5.32c3.36,0,4.58,2.46,4.58,5.6H373.3z M379.76,500.82
			c-0.14-1.94-1.18-3.4-3.26-3.4c-1.96,0-3,1.64-3.16,3.4H379.76z"/>
		<path class="st1" d="M387.06,496.31c1.9,0,3.5,0.66,3.66,2.78h-1.3c-0.12-1.26-1.24-1.68-2.48-1.68c-1.12,0-2.26,0.44-2.26,1.62
			c0,1.48,1.94,1.34,4.66,2.3c1.04,0.36,1.7,1.26,1.7,2.34c0,2.26-2.1,3.28-4.22,3.28c-1.74,0-3.74-0.82-3.78-3.04h1.3
			c0.1,1.5,1.42,1.94,2.78,1.94c1.28,0,2.62-0.6,2.62-2c0-1.44-1.58-1.68-3.18-2.04c-1.58-0.38-3.18-0.84-3.18-2.7
			C383.38,497.03,385.3,496.31,387.06,496.31z"/>
		<path class="st1" d="M394.1,506.66v-1.72h1.6v1.72H394.1z"/>
	</g>
	<g>
		<path class="st1" d="M78.5,545.44l-2.66,7.22h-1.1l-2.57-7.22h1l2.15,6.17h0.02l2.16-6.17H78.5z"/>
	</g>
	<g>
		<path class="st1" d="M79.48,550.33c-0.07,0.88,0.29,1.79,1.26,1.79c0.74,0,1.11-0.29,1.22-1.02h1c-0.15,1.14-1.03,1.71-2.23,1.71
			c-1.61,0-2.25-1.14-2.25-2.62c0-1.47,0.74-2.7,2.33-2.7c1.5,0.03,2.21,0.98,2.21,2.37v0.47H79.48z M82.02,549.67
			c0.02-0.84-0.36-1.49-1.28-1.49c-0.79,0-1.26,0.67-1.26,1.49H82.02z"/>
		<path class="st1" d="M85.41,552.66h-0.95v-5.02h0.95v0.97h0.02c0.14-0.69,0.78-1.04,1.47-1.04c0.12,0,0.22,0.01,0.33,0.01v0.9
			c-0.13-0.05-0.28-0.05-0.41-0.05c-1.2,0.04-1.41,0.68-1.41,1.74V552.66z"/>
		<path class="st1" d="M89.92,547.49c0.95,0,2.02,0.4,1.95,1.54h-1c0.04-0.64-0.45-0.85-1-0.85c-0.51,0-0.92,0.24-0.92,0.8
			s0.86,0.6,1.22,0.71c0.85,0.28,1.83,0.38,1.83,1.51c0,1.23-1.2,1.61-2.23,1.61c-1.05,0-1.93-0.48-1.92-1.64h1
			c0.02,0.62,0.44,0.95,1.02,0.95c0.56,0,1.13-0.22,1.13-0.87c0-1.12-3.05-0.28-3.05-2.24C87.95,547.96,89.01,547.49,89.92,547.49z"
			/>
		<path class="st1" d="M93.25,545.44h1.13v1.03h-1.13V545.44z M93.34,552.66v-5.02h0.95v5.02H93.34z"/>
		<path class="st1" d="M100.76,550.15c0,1.56-0.85,2.66-2.5,2.66c-1.65,0-2.5-1.1-2.5-2.66c0-1.56,0.85-2.66,2.5-2.66
			C99.91,547.49,100.76,548.59,100.76,550.15z M98.26,552.12c1.13,0,1.5-0.9,1.5-1.97s-0.37-1.97-1.5-1.97s-1.5,0.9-1.5,1.97
			S97.13,552.12,98.26,552.12z"/>
		<path class="st1" d="M103.14,548.38h0.02c0.32-0.63,1.02-0.89,1.52-0.89c0.35,0,1.9,0.09,1.9,1.7v3.47h-0.95v-3.16
			c0-0.83-0.35-1.28-1.15-1.28c0,0-0.52-0.03-0.92,0.37c-0.14,0.14-0.4,0.36-0.4,1.34v2.73h-0.95v-5.02h0.93V548.38z"/>
		<path class="st1" d="M114.1,552.66h-1v-5.87c-0.53,0.36-1.04,0.75-1.62,1.01l-0.04-1.01c0.26-0.13,1.3-0.77,1.66-1.05h1V552.66z"
			/>
		<path class="st1" d="M116.57,552.66v-1.2h1.16v1.2H116.57z"/>
		<path class="st1" d="M122.44,552.66h-1v-5.87c-0.53,0.36-1.04,0.75-1.62,1.01l-0.04-1.01c0.26-0.13,1.3-0.77,1.66-1.05h1V552.66z"
			/>
	</g>
	<g>
		<path class="st1" d="M72.88,561.44h2.42c1.34-0.06,2.5,0.44,2.5,2.02c0,1.51-1.23,1.99-2.56,2.02h-1.36v3.18h-1V561.44z
			 M75.45,564.62c0.12,0,1.3,0.06,1.3-1.16c0-1.22-1.18-1.16-1.3-1.16h-1.57v2.32H75.45z"/>
		<path class="st1" d="M82.38,563.64h0.95v5.02H82.4v-0.74h-0.02c-0.38,0.63-1.02,0.89-1.72,0.89c-1.05,0-1.65-0.8-1.65-1.81v-3.36
			h0.95v2.97c0,0.87,0.2,1.51,1.11,1.51c0.39,0,0.92-0.2,1.12-0.72c0.18-0.47,0.19-1.06,0.19-1.18V563.64z"/>
		<path class="st1" d="M86.01,568.66h-0.98c0.02-0.3,0.05-0.6,0.05-0.8v-6.42h0.95v2.88h0.02c0.29-0.6,0.92-0.83,1.56-0.83
			c1.56,0,2.26,1.3,2.26,2.66c0,1.29-0.6,2.66-2.09,2.66c-0.73,0-1.39-0.25-1.73-0.95h-0.02l0.02,0.05L86.01,568.66z M87.45,564.18
			c-1.08,0-1.42,1.06-1.42,1.97c0,0.94,0.27,1.97,1.42,1.97c1.07,0,1.42-1.03,1.42-1.97S88.59,564.18,87.45,564.18z"/>
		<path class="st1" d="M91.25,568.66v-7.22h0.95v7.22H91.25z"/>
		<path class="st1" d="M93.94,561.44h1.13v1.03h-1.13V561.44z M94.03,568.66v-5.02h0.95v5.02H94.03z"/>
		<path class="st1" d="M98.39,563.49c0.95,0,2.02,0.4,1.95,1.54h-1c0.04-0.64-0.45-0.85-1-0.85c-0.51,0-0.92,0.24-0.92,0.8
			s0.86,0.6,1.22,0.71c0.85,0.28,1.83,0.38,1.83,1.51c0,1.23-1.2,1.61-2.23,1.61c-1.05,0-1.93-0.48-1.92-1.64h1
			c0.02,0.62,0.44,0.95,1.02,0.95c0.56,0,1.13-0.22,1.13-0.87c0-1.12-3.05-0.28-3.05-2.24C96.42,563.96,97.48,563.49,98.39,563.49z"
			/>
		<path class="st1" d="M101.79,568.66v-7.22h0.95v2.87h0.02c0.36-0.56,0.9-0.82,1.63-0.82c1.31,0,1.72,0.87,1.72,1.77v3.4h-0.95
			v-2.97c0-0.88-0.23-1.45-1.12-1.47c-0.38-0.01-0.96,0.28-1.14,0.7c-0.22,0.52-0.16,0.88-0.16,1.16v2.58H101.79z"/>
		<path class="st1" d="M108.51,566.33c-0.07,0.88,0.29,1.79,1.26,1.79c0.74,0,1.11-0.29,1.22-1.02h1c-0.15,1.14-1.03,1.71-2.23,1.71
			c-1.61,0-2.25-1.14-2.25-2.62c0-1.47,0.74-2.7,2.33-2.7c1.5,0.03,2.21,0.98,2.21,2.37v0.47H108.51z M111.05,565.67
			c0.02-0.84-0.36-1.49-1.28-1.49c-0.79,0-1.26,0.67-1.26,1.49H111.05z"/>
		<path class="st1" d="M116.93,561.44h0.95v6.33c0,0.3,0.03,0.6,0.05,0.89h-0.97l-0.03-0.75v-0.05h-0.02c-0.34,0.7-1,0.95-1.73,0.95
			c-1.49,0-2.08-1.37-2.08-2.66c0-1.36,0.69-2.66,2.25-2.66c0.64,0,1.27,0.23,1.56,0.83h0.02V561.44z M115.52,568.15
			c1.15,0,1.42-1.07,1.42-2.01c0-0.91-0.34-1.99-1.42-1.99c-1.14,0-1.42,1.05-1.42,1.99S114.45,568.15,115.52,568.15z"/>
		<path class="st1" d="M128.24,561.44v7.22H127l-3.65-6.13h-0.02v6.13h-0.89v-7.22h1.37l3.52,5.97h0.02v-5.97H128.24z"/>
		<path class="st1" d="M134.79,566.15c0,1.56-0.85,2.66-2.5,2.66c-1.65,0-2.5-1.1-2.5-2.66c0-1.56,0.85-2.66,2.5-2.66
			C133.94,563.49,134.79,564.59,134.79,566.15z M132.29,568.12c1.13,0,1.5-0.9,1.5-1.97s-0.37-1.97-1.5-1.97s-1.5,0.9-1.5,1.97
			S131.16,568.12,132.29,568.12z"/>
		<path class="st1" d="M137.6,568.66l-2.1-5.02h1.05l1.6,3.98l1.56-3.98h1.04l-2.2,5.02H137.6z"/>
		<path class="st1" d="M142.41,566.33c-0.07,0.88,0.29,1.79,1.26,1.79c0.74,0,1.11-0.29,1.22-1.02h1c-0.15,1.14-1.03,1.71-2.23,1.71
			c-1.61,0-2.25-1.14-2.25-2.62c0-1.47,0.74-2.7,2.33-2.7c1.5,0.03,2.21,0.98,2.21,2.37v0.47H142.41z M144.95,565.67
			c0.02-0.84-0.36-1.49-1.28-1.49c-0.79,0-1.26,0.67-1.26,1.49H144.95z"/>
		<path class="st1" d="M148.27,564.36h0.02c0.3-0.63,0.92-0.87,1.43-0.87c0.95,0,1.51,0.32,1.77,0.94c0.36-0.62,0.93-0.94,1.67-0.94
			c1.16,0,1.87,0.73,1.87,1.63v3.54h-0.95v-2.97c0-0.69-0.1-1.47-1.21-1.47c-0.29,0-0.93,0.16-1.11,0.78
			c-0.13,0.46-0.1,0.96-0.1,1.08v2.58h-0.95v-2.97c0-0.87-0.2-1.47-1.11-1.47c-0.39,0-0.95,0.15-1.24,0.82
			c-0.11,0.26-0.07,0.92-0.07,1.04v2.58h-0.95v-5.02h0.93V564.36z"/>
		<path class="st1" d="M157.69,568.66h-0.98c0.02-0.3,0.05-0.6,0.05-0.8v-6.42h0.95v2.88h0.02c0.29-0.6,0.92-0.83,1.56-0.83
			c1.56,0,2.26,1.3,2.26,2.66c0,1.29-0.6,2.66-2.09,2.66c-0.73,0-1.39-0.25-1.73-0.95h-0.02l0.02,0.05L157.69,568.66z
			 M159.13,564.18c-1.08,0-1.42,1.06-1.42,1.97c0,0.94,0.27,1.97,1.42,1.97c1.07,0,1.42-1.03,1.42-1.97S160.27,564.18,159.13,564.18
			z"/>
		<path class="st1" d="M163.52,566.33c-0.07,0.88,0.29,1.79,1.26,1.79c0.74,0,1.11-0.29,1.22-1.02h1c-0.15,1.14-1.03,1.71-2.23,1.71
			c-1.61,0-2.25-1.14-2.25-2.62c0-1.47,0.74-2.7,2.33-2.7c1.5,0.03,2.21,0.98,2.21,2.37v0.47H163.52z M166.06,565.67
			c0.02-0.84-0.36-1.49-1.28-1.49c-0.79,0-1.26,0.67-1.26,1.49H166.06z"/>
		<path class="st1" d="M169.45,568.66h-0.95v-5.02h0.95v0.97h0.02c0.14-0.69,0.78-1.04,1.47-1.04c0.12,0,0.22,0.01,0.33,0.01v0.9
			c-0.13-0.05-0.28-0.05-0.41-0.05c-1.2,0.04-1.41,0.68-1.41,1.74V568.66z"/>
		<path class="st1" d="M179.17,568.66h-4.4v-0.91c0.98-0.96,1.99-1.88,2.85-2.96c0.31-0.4,0.48-0.75,0.48-1.27
			c0-0.72-0.41-1.07-1.11-1.07c-0.69,0-1.11,0.52-1.07,1.18h-1.05c-0.01-1.24,0.9-2.04,2.11-2.04c1.32,0,2.17,0.73,2.17,1.85
			c0,0.83-0.23,1.2-0.73,1.83c-0.59,0.76-1.77,1.94-2.41,2.51v0.02h3.16V568.66z"/>
		<path class="st1" d="M184.9,565.2c0,1.5-0.33,3.61-2.32,3.61c-1.99,0-2.32-2.11-2.32-3.61s0.33-3.61,2.32-3.61
			C184.57,561.59,184.9,563.7,184.9,565.2z M181.31,565.2c0,0.86-0.02,2.75,1.27,2.75c1.29,0,1.27-1.89,1.27-2.75
			c0-0.89,0.03-2.75-1.27-2.75S181.31,564.31,181.31,565.2z"/>
		<path class="st1" d="M189.26,568.66h-1v-5.87c-0.53,0.36-1.04,0.75-1.62,1.01l-0.04-1.01c0.26-0.13,1.3-0.77,1.66-1.05h1V568.66z"
			/>
		<path class="st1" d="M195.94,564.96c0,1.75-0.5,3.85-2.62,3.85c-1.07,0-1.97-0.67-1.97-1.79h1.05c-0.01,0.63,0.42,0.93,1.03,0.93
			c1.37,0,1.45-1.61,1.46-2.76l-0.01-0.02c-0.26,0.67-0.86,0.93-1.54,0.91c-1.22-0.04-1.99-0.92-2.05-2.14
			c-0.06-1.31,0.88-2.35,2.26-2.35C195.56,561.59,195.94,563.24,195.94,564.96z M193.57,562.45c-0.77,0-1.23,0.52-1.23,1.33
			c0,0.85,0.36,1.44,1.2,1.44c0.83,0,1.35-0.6,1.35-1.44C194.89,563.05,194.45,562.45,193.57,562.45z"/>
	</g>
	<polygon class="st5" points="124.99,719.29 126.77,719.29 126.77,719.68 118.93,719.68 118.93,719.29 120.72,719.29 120.72,698.02 
		118.93,698.02 118.93,697.64 124.99,697.64 	"/>
	<g>
		<defs>
			<rect id="SVGID_3_" x="72" y="697.59" width="223.57" height="22.41"/>
		</defs>
		<clipPath id="SVGID_4_">
			<use xlink:href="#SVGID_3_"  style="overflow:visible;"/>
		</clipPath>
		<path class="st6" d="M73.79,705.99H72v-0.39h5.91c0,0.69,0.03,1.13,0.06,1.52v0.33c0.39-0.39,1.04-0.95,1.82-1.37
			c0.78-0.42,1.7-0.72,2.68-0.72c2.77,0,4.27,1.55,4.27,4.65v7.09c0.07,0.58-0.28,2.19,1.79,2.19v0.39h-7.67v-0.39h1.61v-8.89
			c0-2.27-0.3-3.64-2.09-3.64c-0.57,0-1.07,0.24-1.46,0.48c-0.39,0.27-0.72,0.6-0.86,0.81v11.24h1.61v0.39H72v-0.39h1.79V705.99z"/>
		<path class="st6" d="M109.05,717.45c0.36,0.69,1.01,1.4,1.97,1.4c1.34,0,2.18-1.04,2.65-2.39c0.45-1.31,0.57-2.95,0.57-4.06
			c0-1.67-0.3-3.22-0.81-4.33c-0.51-1.1-1.25-1.82-2.21-1.82c-0.98,0-1.85,0.71-2.18,1.4V717.45z M109.05,706.86
			c0.21-0.33,0.63-0.74,1.25-1.1c0.63-0.33,1.49-0.57,2.48-0.57c1.1,0,2.68,0.54,3.94,1.73c1.25,1.19,2.21,3.07,2.21,5.73
			c0,2.74-0.98,4.56-2.27,5.73c-1.28,1.16-2.84,1.55-4,1.61c-1.7,0.08-2.95-0.3-3.89-0.36c-1.37-0.09-5.63,0-5.63,0h-0.14v-0.39
			h1.79v-21.27h-1.79v-0.39h6.05V706.86z"/>
	</g>
	<path class="st5" d="M95.87,705.62c-0.89,0-1.58,0.57-2.03,1.73c-0.48,1.16-0.72,2.8-0.72,4.89c0,2.06,0.15,3.91,0.6,5.22
		c0.45,1.31,1.13,2.12,2.21,2.12c0.98,0,1.67-0.81,2.09-2.15c0.42-1.31,0.57-3.16,0.57-5.19c0-2.06-0.21-3.67-0.6-4.86
		C97.57,706.22,96.85,705.62,95.87,705.62 M103.26,712.33c0,2.15-0.63,4.06-1.88,5.43c-1.25,1.37-3.16,2.24-5.64,2.24
		c-2.48,0-4.27-0.8-5.46-2.12c-1.19-1.31-1.79-3.19-1.79-5.34c0-2.12,0.72-3.94,2.03-5.25c1.28-1.31,3.1-2.09,5.37-2.09
		c2.18,0,4.06,0.72,5.34,1.94C102.52,708.36,103.26,710.18,103.26,712.33"/>
	<path class="st5" d="M132.19,707.4c0.39-1.01,0.83-1.49,1.24-1.49c0.4,0,0.86,0.37,1.19,1.49c0.28,0.92,0.54,2.51,0.55,4.71
		c0,0-2.26,0-3.69,0C131.52,709.95,131.8,708.41,132.19,707.4 M137.24,717.19c-0.51,0.33-1.22,0.57-2.06,0.57
		c-1.4,0-2.27-0.84-2.83-1.94c-0.6-1.1-0.83-2.26-0.86-3.36c1.81,0.02,5.29,0.02,7.51,0c0,0,0-1.46-0.2-2.73
		c-0.25-1.54-1.39-3.18-2.36-3.76c-0.93-0.56-1.37-0.71-2.68-0.77c-1.94-0.08-3.67,0.8-4.86,2.18c-1.22,1.37-1.94,3.25-1.94,5.37
		c0,1.79,0.51,3.58,1.55,4.95c1.04,1.37,2.57,2.3,4.59,2.3c1.67,0,2.92-0.54,3.82-1.25c0.89-0.72,1.46-1.58,1.7-2.3l-0.36-0.21
		C138.1,716.47,137.74,716.86,137.24,717.19"/>
	<path class="st5" d="M148.86,698.72c-1.28,0-2.3,1.01-2.3,2.3c0,1.22,1.01,2.27,2.3,2.27c1.28,0,2.27-1.05,2.27-2.27
		C151.12,699.73,150.14,698.72,148.86,698.72 M144.92,705.99v-0.39h6.05v13.69h1.79v0.39h-7.84v-0.39h1.79v-13.3H144.92z"/>
	<path class="st5" d="M155.2,705.99h-1.79v-0.39h5.91c0,0.69,0.03,1.13,0.06,1.52v0.33c0.39-0.39,1.04-0.95,1.82-1.37
		c0.78-0.42,1.7-0.71,2.68-0.71c2.77,0,4.26,1.55,4.26,4.65v7.09c0.07,0.58-0.28,2.19,1.79,2.19v0.39h-7.67v-0.39h1.61v-8.89
		c0-2.27-0.3-3.64-2.09-3.64c-0.57,0-1.07,0.24-1.46,0.48c-0.39,0.27-0.71,0.6-0.86,0.81v11.24h1.61v0.39h-7.66v-0.39h1.79V705.99z"
		/>
	<path class="st5" d="M177.57,718.96c-0.45,0.48-1.55,1.04-2.83,1.04c-0.87,0-1.94-0.09-2.77-0.72c-0.83-0.63-1.46-1.79-1.46-3.91
		v-9.43h-1.34v-0.39h1.34v-1.94c0.86,0,1.76-0.27,2.48-0.74c0.71-0.45,1.22-1.1,1.34-1.85h0.45v4.53h2.71v0.39h-2.71v11.21
		c0,1.4,0.6,1.97,1.34,1.97c0.6,0,1.01-0.27,1.22-0.48c0.03,0.06,0.09,0.12,0.12,0.15C177.54,718.9,177.6,718.96,177.57,718.96"/>
	<path class="st5" d="M182.56,707.4c0.39-1.01,0.83-1.49,1.24-1.49c0.4,0,0.86,0.37,1.19,1.49c0.28,0.92,0.55,2.51,0.55,4.71
		c0,0-2.26,0-3.69,0C181.89,709.96,182.17,708.42,182.56,707.4 M187.6,717.2c-0.51,0.33-1.22,0.57-2.06,0.57
		c-1.4,0-2.27-0.84-2.83-1.94c-0.6-1.1-0.83-2.26-0.86-3.36c1.81,0.02,5.29,0.02,7.51,0c0,0,0-1.46-0.2-2.73
		c-0.25-1.54-1.39-3.18-2.36-3.76c-0.93-0.56-1.37-0.71-2.68-0.77c-1.94-0.08-3.67,0.8-4.86,2.18c-1.22,1.37-1.94,3.25-1.94,5.37
		c0,1.79,0.51,3.58,1.55,4.95c1.05,1.37,2.56,2.3,4.59,2.3c1.67,0,2.92-0.54,3.82-1.25c0.89-0.72,1.46-1.58,1.7-2.3l-0.36-0.21
		C188.47,716.48,188.11,716.87,187.6,717.2"/>
	<path class="st5" d="M191.25,705.99h-1.79v-0.39h5.91c0,0.69,0.03,1.13,0.06,1.52v0.33c0.39-0.39,1.04-0.95,1.82-1.37
		c0.78-0.42,1.7-0.71,2.68-0.71c2.77,0,4.27,1.55,4.27,4.65v7.09c0.07,0.58-0.28,2.19,1.79,2.19v0.39h-7.66v-0.39h1.61v-8.89
		c0-2.27-0.3-3.64-2.09-3.64c-0.57,0-1.07,0.24-1.46,0.48c-0.39,0.27-0.72,0.6-0.86,0.81v11.24h1.61v0.39h-7.67v-0.39h1.79V705.99z"
		/>
	<path class="st5" d="M213.83,718.96c-0.45,0.48-1.55,1.04-2.83,1.04c-0.86,0-1.94-0.09-2.77-0.72c-0.84-0.63-1.46-1.79-1.46-3.91
		v-9.43h-1.34v-0.39h1.34v-1.94c0.86,0,1.76-0.27,2.47-0.74c0.72-0.45,1.22-1.1,1.34-1.85h0.45v4.53h2.71v0.39h-2.71v11.21
		c0,1.4,0.6,1.97,1.34,1.97c0.6,0,1.01-0.27,1.22-0.48c0.03,0.06,0.09,0.12,0.12,0.15C213.8,718.9,213.86,718.96,213.83,718.96"/>
	<path class="st5" d="M276.56,698.6c-1.28,0-2.3,1.01-2.3,2.3c0,1.22,1.01,2.27,2.3,2.27c1.28,0,2.27-1.04,2.27-2.27
		C278.83,699.62,277.84,698.6,276.56,698.6 M272.62,705.88v-0.39h6.05v13.69h1.79v0.39h-7.84v-0.39h1.79v-13.3H272.62z"/>
	<g>
		<defs>
			<rect id="SVGID_5_" x="72" y="697.59" width="223.57" height="22.41"/>
		</defs>
		<clipPath id="SVGID_6_">
			<use xlink:href="#SVGID_5_"  style="overflow:visible;"/>
		</clipPath>
		<path class="st7" d="M253.5,719.26h1.79v0.39h-5.91c0-0.69-0.03-1.13-0.06-1.52v-0.33c-0.39,0.39-1.04,0.95-1.82,1.37
			c-0.78,0.42-1.7,0.72-2.68,0.72c-2.77,0-4.26-1.55-4.26-4.65v-7.09c-0.07-0.58,0.28-2.3-1.79-2.3v-0.22v-0.17h7.67v0.4h-1.61v8.99
			c0,2.27,0.3,3.64,2.09,3.64c0.57,0,1.07-0.24,1.46-0.48c0.39-0.27,0.72-0.6,0.87-0.81v-11.35h-1.61v-0.39h7.67v0.39h-1.79V719.26z
			"/>
		<path class="st7" d="M265.75,707.67c-0.33-0.69-1.19-1.4-2.18-1.4c-0.95,0-1.7,0.71-2.21,1.82c-0.51,1.1-0.81,2.65-0.81,4.33
			c0,1.1,0.12,2.74,0.57,4.06c0.48,1.34,1.31,2.39,2.65,2.39c0.95,0,1.61-0.72,1.97-1.4V707.67z M265.75,697.59h4.26v21.65h1.79
			v0.39h-0.14c0,0-4.26-0.09-5.63,0c-0.94,0.06-2.19,0.44-3.89,0.36c-1.16-0.06-2.71-0.45-4-1.61c-1.28-1.16-2.27-2.98-2.27-5.73
			c0-2.65,0.95-4.53,2.21-5.73c1.25-1.19,2.83-1.73,3.94-1.73c0.98,0,1.85,0.24,2.48,0.57c0.63,0.36,1.04,0.77,1.25,1.1v-8.11v-0.78
			h-1.74v-0.38L265.75,697.59z"/>
	</g>
	<path class="st5" d="M238.96,718.84c-0.45,0.48-1.55,1.04-2.83,1.04c-0.87,0-1.94-0.09-2.77-0.72c-0.83-0.63-1.46-1.79-1.46-3.91
		v-9.43h-1.34v-0.39h1.34v-1.94c0.86,0,1.76-0.27,2.48-0.75c0.72-0.45,1.22-1.1,1.34-1.85h0.45v4.53h2.71v0.39h-2.71v11.22
		c0,1.4,0.6,1.97,1.34,1.97c0.6,0,1.01-0.27,1.22-0.48c0.03,0.06,0.09,0.12,0.12,0.15C238.93,718.78,238.99,718.84,238.96,718.84"/>
	<path class="st5" d="M288.18,705.51c-0.89,0-1.58,0.57-2.03,1.73c-0.48,1.16-0.72,2.8-0.72,4.89c0,2.06,0.15,3.91,0.6,5.22
		c0.45,1.31,1.13,2.12,2.21,2.12c0.99,0,1.67-0.8,2.09-2.15c0.42-1.31,0.57-3.16,0.57-5.19c0-2.06-0.21-3.67-0.6-4.86
		C289.88,706.11,289.16,705.51,288.18,705.51 M295.57,712.22c0,2.15-0.63,4.06-1.88,5.43c-1.25,1.37-3.16,2.24-5.64,2.24
		c-2.48,0-4.27-0.8-5.46-2.12c-1.19-1.31-1.79-3.19-1.79-5.34c0-2.12,0.71-3.94,2.03-5.25c1.28-1.31,3.1-2.09,5.37-2.09
		c2.18,0,4.06,0.72,5.34,1.94C294.83,708.26,295.57,710.08,295.57,712.22"/>
	<path class="st5" d="M228.9,712.2c-0.68-0.8-1.68-1.36-3.02-1.86c-0.92-0.35-1.71-0.65-2.28-1.06c-0.56-0.41-0.89-1.16-0.89-1.96
		c0-1.06,1.01-1.84,2.04-1.96c0.49-0.06,1.75-0.02,2.74,0.41c-1.05,0.09-1.85,0.95-1.85,2.02c0,1.08,0.9,2.01,2.03,2.01
		c1.13,0,2-0.92,2-2.01c0-0.68-0.31-1.27-0.81-1.64v0c-0.01-0.01-0.03-0.02-0.05-0.03c-0.01-0.01-0.02-0.01-0.02-0.02
		c-1.02-0.74-2.94-1.12-4.13-1.06c-1.33,0.07-2.54,0.53-3.37,1.36c-0.86,0.86-1.36,2.07-1.36,3.49c0,1.27,0.41,1.94,1.12,2.65
		c0.71,0.74,1.71,1.24,2.9,1.68c0.62,0.24,1.42,0.5,2.04,0.95c0.59,0.47,1.06,1.34,1.06,2.17c0,0.68-0.32,1.18-0.8,1.54
		c-0.47,0.39-1.13,0.5-1.74,0.59c-0.78,0.11-1.79,0.1-2.58-0.12c1.06-0.15,1.83-1.06,1.83-2.11c0-1.21-0.93-2.16-2.13-2.16
		s-2.16,0.96-2.16,2.16c0,0.57,0.23,1.1,0.62,1.48v0c0,0,0,0,0,0c0.02,0.02,0.04,0.04,0.06,0.06c0.93,0.9,3.01,1.18,4.48,1.1
		c1.33-0.07,2.66-0.44,3.64-1.24c0.98-0.8,1.63-1.95,1.63-3.46C229.9,713.76,229.58,713.02,228.9,712.2"/>
	<g>
		<defs>
			<rect id="SVGID_7_" x="71.74" y="619.5" width="56.3" height="34.79"/>
		</defs>
		<clipPath id="SVGID_8_">
			<use xlink:href="#SVGID_7_"  style="overflow:visible;"/>
		</clipPath>
		<path class="st8" d="M126.41,635.64l-0.04,0l-0.02,0.31c-0.02,0.11-0.06,0.21-0.11,0.31c-0.06,0.12-0.14,0.22-0.23,0.32
			l-0.05,0.05c-0.53,0.63-1.1,1.22-1.81,1.92c-1.3,1.3-2.66,2.51-4.03,3.62c-0.95,0.77-1.92,1.5-2.9,2.17
			c-1.52,1.05-3.08,1.98-4.63,2.77c-1.06,0.54-2.11,1.02-3.13,1.43c-1.87,0.75-3.7,1.29-5.45,1.6c-0.82,0.14-1.65,0.26-2.46,0.32
			c-2.47,0.21-4.94,0.05-7.35-0.46c-0.36-0.08-0.73-0.16-1.09-0.26l-0.14-0.04c-0.32-0.08-0.63-0.17-0.94-0.26l-0.24,0.8l0.18-0.82
			c-0.27-0.08-0.54-0.17-0.82-0.26l3.18-3.18c1.59,0.8,3.36,1.22,5.13,1.22c6.34,0,11.5-5.16,11.5-11.5c0-1.78-0.42-3.54-1.22-5.13
			l5.03-5.03c0.79,0.48,1.6,0.99,2.39,1.54l0.47-0.69l-0.42,0.72c0.46,0.32,0.9,0.64,1.35,0.97l0.2,0.15
			c0.44,0.33,0.87,0.66,1.29,0.99c2.52,2.01,4.39,3.77,5.9,5.55l0.05,0.05c0.05,0.05,0.09,0.1,0.13,0.15
			c0.11,0.15,0.18,0.33,0.22,0.51l0.01,0.08l0.83-0.04L126.41,635.64z M126.76,635.91l-0.34-0.08l0.77,0.12L126.76,635.91z
			 M99.15,641.11l0.54-0.54c2.42-0.23,4.35-2.16,4.58-4.58l0.54-0.54l3.67-3.67c0.54,1.24,0.83,2.57,0.83,3.92
			c0,5.42-4.41,9.84-9.84,9.84c-1.35,0-2.68-0.29-3.92-0.83L99.15,641.11z M128.04,635.58l-0.83,0.02l0.83-0.04l-0.02-0.21
			c0-0.01,0-0.02,0-0.03l-0.01-0.07c-0.07-0.45-0.25-0.88-0.52-1.25c-0.08-0.11-0.17-0.22-0.27-0.32c-1.57-1.86-3.52-3.69-6.11-5.76
			c-0.44-0.35-0.88-0.69-1.33-1.02l-0.2-0.15c-0.46-0.34-0.92-0.67-1.38-0.99l-0.06-0.04c-0.72-0.5-1.44-0.96-2.17-1.4l3.39-3.39
			c0.32-0.33,0.32-0.85,0-1.18c-0.33-0.33-0.85-0.33-1.18,0l-33.12,33.12c-0.33,0.32-0.33,0.85,0,1.18
			c0.16,0.16,0.38,0.24,0.59,0.24c0.21,0,0.43-0.08,0.59-0.24l3.59-3.59c0.56,0.2,1.13,0.4,1.69,0.57l0.06,0.02
			c0.33,0.1,0.67,0.19,1.05,0.29l0.1,0.03c0.38,0.1,0.76,0.19,1.15,0.27c1.83,0.39,3.7,0.58,5.57,0.58c0.75,0,1.51-0.03,2.26-0.09
			c0.87-0.07,1.75-0.19,2.61-0.34c1.86-0.33,3.81-0.91,5.78-1.7c1.06-0.43,2.16-0.93,3.27-1.49c1.62-0.83,3.23-1.8,4.81-2.88
			c1.01-0.69,2.02-1.45,3-2.24c1.41-1.14,2.81-2.4,4.16-3.73c0.59-0.58,1.26-1.26,1.89-2c0.2-0.21,0.37-0.45,0.51-0.71
			c0.14-0.27,0.23-0.56,0.28-0.86l0.03-0.31c0-0.05,0-0.09,0-0.14C128.04,635.66,128.04,635.62,128.04,635.58"/>
		<path class="st8" d="M109.34,621.94c-1.44-0.55-2.93-1-4.45-1.33c-3.36-0.71-6.75-0.74-10.13-0.14c-3.08,0.55-6.04,1.69-8.81,3.11
			c-4.34,2.22-8.31,5.28-11.76,8.71c-0.64,0.64-1.28,1.28-1.86,1.97c-0.77,0.92-0.77,2,0,2.92c1.77,2.1,3.87,3.96,6.01,5.67
			c1.88,1.5,3.88,2.9,5.97,4.11L109.34,621.94z"/>
	</g>
	<g>
		<defs>
			<rect id="SVGID_9_" x="157.76" y="620.37" width="52.9" height="33.04"/>
		</defs>
		<clipPath id="SVGID_10_">
			<use xlink:href="#SVGID_9_"  style="overflow:visible;"/>
		</clipPath>
		<path class="st9" d="M196.15,644l2.54-7.02c0.13-0.36,0.65-0.36,0.78,0l2.52,7.02c0.1,0.27-0.1,0.55-0.39,0.55h-5.07
			C196.25,644.55,196.05,644.27,196.15,644 M201.62,630.1h-5.07c-0.17,0-0.32,0.11-0.39,0.27l-8.66,22.38
			c-0.11,0.27,0.1,0.56,0.39,0.56h3.42c0.18,0,0.33-0.11,0.39-0.27l1.29-3.52c0.09-0.26,0.34-0.43,0.62-0.43h10.96
			c0.28,0,0.53,0.17,0.62,0.43l1.29,3.52c0.06,0.16,0.21,0.27,0.39,0.27h3.38c0.29,0,0.49-0.29,0.39-0.56l-8.62-22.38
			C201.95,630.2,201.79,630.1,201.62,630.1"/>
		<path class="st10" d="M184.49,651.73h5.47l-11.43-29.67h-7.21l-11.48,29.67h5.51l1.77-4.85c0.12-0.33,0.44-0.55,0.79-0.55h14.01
			c0.36,0,0.67,0.22,0.79,0.55L184.49,651.73z"/>
		<path class="st9" d="M191.18,653.41h-7.29c-0.36,0-0.67-0.22-0.79-0.55l-1.77-4.85H168.5l-1.77,4.85
			c-0.12,0.33-0.44,0.55-0.79,0.55h-7.33c-0.28,0-0.54-0.14-0.7-0.37c-0.16-0.23-0.19-0.52-0.09-0.78l12.13-31.36
			c0.13-0.33,0.44-0.54,0.79-0.54h8.37c0.35,0,0.66,0.21,0.79,0.54l12.08,31.36c0.1,0.26,0.06,0.55-0.09,0.78
			C191.72,653.28,191.46,653.41,191.18,653.41 M184.49,651.73h5.47l-11.43-29.67h-7.21l-11.48,29.67h5.51l1.77-4.85
			c0.12-0.33,0.44-0.55,0.79-0.55h14.01c0.35,0,0.67,0.22,0.79,0.55L184.49,651.73z M180.09,642.22H169.7
			c-0.28,0-0.53-0.13-0.69-0.36c-0.16-0.23-0.19-0.51-0.1-0.77l5.22-14.39c0.12-0.33,0.44-0.56,0.79-0.56h0
			c0.36,0,0.67,0.23,0.79,0.56l5.17,14.39c0.09,0.26,0.05,0.55-0.1,0.77C180.62,642.09,180.36,642.22,180.09,642.22 M170.9,640.54
			h7.99l-3.98-11.06L170.9,640.54z"/>
	</g>
	<path class="st1" d="M287.54,658.38h-30.08c-1.58,0-2.86-1.28-2.86-2.86v-5.28c0-0.48,0.39-0.88,0.88-0.88
		c0.49,0,0.88,0.39,0.88,0.88v5.28c0,0.61,0.5,1.11,1.11,1.11h30.08c0.61,0,1.11-0.5,1.11-1.11v-12.77c0-0.48,0.39-0.88,0.88-0.88
		c0.48,0,0.88,0.39,0.88,0.88v12.77C290.41,657.09,289.12,658.38,287.54,658.38"/>
	<path class="st1" d="M289.53,630.1c-0.48,0-0.88-0.39-0.88-0.88v-3.78c0-0.61-0.5-1.11-1.11-1.11h-11.14
		c-0.48,0-0.88-0.39-0.88-0.88c0-0.48,0.39-0.88,0.88-0.88h11.14c1.58,0,2.86,1.28,2.86,2.86v3.78
		C290.41,629.71,290.01,630.1,289.53,630.1"/>
	<path class="st1" d="M294.7,643.49h-18.45c-0.49,0-0.32-0.39-0.32-0.88c0-0.48-0.16-0.88,0.32-0.88h17.57v-11.05h-17.41
		c-0.48,0-0.32-0.39-0.32-0.88s-0.16-0.88,0.32-0.88h18.29c0.48,0,0.88,0.39,0.88,0.88v12.81
		C295.57,643.1,295.18,643.49,294.7,643.49"/>
	<g>
		<defs>
			<rect id="SVGID_11_" x="241.49" y="615.41" width="54.09" height="42.97"/>
		</defs>
		<clipPath id="SVGID_12_">
			<use xlink:href="#SVGID_11_"  style="overflow:visible;"/>
		</clipPath>
		<path class="st11" d="M249.33,651.11c-0.22,0-0.45-0.09-0.62-0.26c-0.34-0.34-0.34-0.9,0-1.24l18.48-18.48
			c0.34-0.34,0.9-0.34,1.24,0c0.34,0.34,0.34,0.9,0,1.24l-18.48,18.47C249.78,651.03,249.55,651.11,249.33,651.11"/>
		<path class="st12" d="M274.42,651.21h-30.08c-1.58,0-2.86-1.28-2.86-2.86v-30.08c0-1.58,1.28-2.86,2.86-2.86h30.08
			c1.58,0,2.86,1.28,2.86,2.86v30.08C277.28,649.92,276,651.21,274.42,651.21 M244.35,617.16c-0.61,0-1.11,0.5-1.11,1.11v30.08
			c0,0.61,0.5,1.11,1.11,1.11h30.08c0.61,0,1.11-0.49,1.11-1.11v-30.08c0-0.61-0.5-1.11-1.11-1.11H244.35z"/>
		<path class="st12" d="M242.36,645.18c-0.22,0-0.45-0.09-0.62-0.26c-0.34-0.34-0.34-0.9,0-1.24l7.82-7.82
			c0.34-0.34,0.9-0.34,1.24,0l5.83,5.83l10.55-10.55c0.33-0.33,0.91-0.33,1.24,0l8.61,8.61c0.34,0.34,0.34,0.9,0,1.24
			c-0.34,0.34-0.9,0.34-1.24,0L267.8,633l-10.55,10.55c-0.33,0.33-0.91,0.33-1.24,0l-5.83-5.83l-7.2,7.2
			C242.81,645.1,242.59,645.18,242.36,645.18"/>
	</g>
	<path class="st1" d="M253.52,631.49c-2.79,0-5.07-2.27-5.07-5.07c0-2.79,2.27-5.07,5.07-5.07c2.79,0,5.07,2.27,5.07,5.07
		C258.59,629.22,256.31,631.49,253.52,631.49 M253.52,623.11c-1.83,0-3.31,1.49-3.31,3.31c0,1.83,1.49,3.31,3.31,3.31
		s3.31-1.49,3.31-3.31C256.83,624.6,255.35,623.11,253.52,623.11"/>
	<path class="st1" d="M283.1,637.54h0.05c0.12,0,0.21,0.03,0.28,0.1c0.06,0.06,0.1,0.16,0.1,0.27c0,0.13-0.03,0.22-0.1,0.28
		c-0.07,0.06-0.18,0.09-0.33,0.09h-0.32c-0.11,0-0.2-0.02-0.25-0.06c-0.06-0.04-0.1-0.12-0.14-0.23c-0.19,0.12-0.38,0.22-0.59,0.28
		c-0.21,0.07-0.42,0.1-0.63,0.1c-0.36,0-0.64-0.09-0.85-0.27c-0.21-0.18-0.31-0.42-0.31-0.74c0-0.34,0.13-0.6,0.4-0.79
		c0.27-0.18,0.64-0.28,1.12-0.28c0.11,0,0.22,0.01,0.34,0.02c0.12,0.01,0.26,0.03,0.41,0.05v-0.06c0-0.2-0.05-0.36-0.15-0.46
		c-0.1-0.11-0.24-0.16-0.43-0.16c-0.15,0-0.34,0.06-0.57,0.17c-0.23,0.11-0.4,0.17-0.51,0.17c-0.11,0-0.19-0.03-0.26-0.09
		c-0.06-0.06-0.1-0.14-0.1-0.24c0-0.18,0.13-0.33,0.4-0.43c0.27-0.11,0.63-0.16,1.09-0.16c0.48,0,0.82,0.09,1.02,0.28
		c0.21,0.18,0.31,0.49,0.31,0.93V637.54z M282.29,636.9c-0.11-0.02-0.22-0.04-0.31-0.06c-0.09-0.01-0.18-0.02-0.26-0.02
		c-0.25,0-0.44,0.04-0.58,0.12c-0.14,0.08-0.21,0.2-0.21,0.34c0,0.13,0.05,0.23,0.13,0.3c0.09,0.07,0.22,0.1,0.39,0.1
		c0.15,0,0.3-0.02,0.44-0.07c0.14-0.04,0.27-0.11,0.4-0.21V636.9z"/>
	<path class="st1" d="M286.28,637.54H287c0.15,0,0.26,0.03,0.33,0.08c0.06,0.06,0.09,0.15,0.09,0.28c0,0.13-0.03,0.23-0.1,0.29
		c-0.06,0.06-0.17,0.09-0.32,0.09h-2.28c-0.15,0-0.26-0.03-0.32-0.09c-0.06-0.06-0.1-0.15-0.1-0.29s0.03-0.23,0.09-0.28
		c0.06-0.05,0.17-0.08,0.33-0.08h0.72v-2.92h-0.37c-0.15,0-0.26-0.03-0.33-0.09c-0.07-0.06-0.1-0.16-0.1-0.28
		c0-0.13,0.03-0.23,0.1-0.29c0.07-0.06,0.18-0.09,0.33-0.09h1.01c0.06,0,0.11,0.01,0.15,0.04c0.03,0.03,0.05,0.06,0.05,0.11V637.54z
		"/>
	<path class="st1" d="M289.42,635.36h1.03c0.15,0,0.26,0.03,0.33,0.08c0.07,0.06,0.1,0.15,0.1,0.28c0,0.13-0.03,0.23-0.1,0.29
		c-0.07,0.06-0.18,0.09-0.33,0.09h-1.03v0.86c0,0.24,0.04,0.41,0.11,0.5c0.07,0.09,0.2,0.13,0.39,0.13c0.17,0,0.38-0.05,0.62-0.15
		c0.24-0.1,0.4-0.15,0.48-0.15c0.09,0,0.17,0.04,0.24,0.11c0.07,0.07,0.1,0.16,0.1,0.26c0,0.17-0.15,0.33-0.47,0.47
		c-0.31,0.14-0.67,0.21-1.06,0.21c-0.23,0-0.43-0.03-0.61-0.09c-0.18-0.06-0.31-0.15-0.41-0.27c-0.07-0.09-0.13-0.2-0.16-0.32
		c-0.03-0.13-0.05-0.34-0.05-0.63v-0.07v-0.86h-0.32c-0.15,0-0.26-0.03-0.32-0.09c-0.06-0.06-0.1-0.15-0.1-0.29
		c0-0.13,0.03-0.23,0.09-0.28c0.06-0.05,0.17-0.08,0.32-0.08h0.32v-0.79c0-0.16,0.03-0.26,0.1-0.33c0.06-0.06,0.17-0.09,0.32-0.09
		c0.15,0,0.25,0.03,0.32,0.09c0.06,0.06,0.1,0.17,0.1,0.33V635.36z"/>
	<path class="st1" d="M253.52,623.11c-1.83,0-3.31,1.49-3.31,3.31c0,1.83,1.49,3.31,3.31,3.31s3.31-1.49,3.31-3.31
		C256.83,624.6,255.35,623.11,253.52,623.11"/>
	<polygon class="st1" points="275.79,640.98 275.79,649.45 242.11,649.45 242.11,645.18 250.34,636.96 256.42,643.04 267.75,631.71 
			"/>
	<path class="st1" d="M522.32,618.12c-10.81,0-19.6,8.79-19.6,19.61c0,4.89,1.82,9.58,5.12,13.2c0.31,0.33,0.74,0.53,1.19,0.54
		c0.01,0,0.02,0,0.04,0c0.44,0,0.86-0.17,1.18-0.49l25.33-25.33c0.32-0.32,0.5-0.76,0.49-1.21c-0.01-0.45-0.21-0.89-0.54-1.19
		C531.9,619.94,527.21,618.12,522.32,618.12 M522.32,619.78c4.65,0,8.89,1.78,12.08,4.69l-25.33,25.33
		c-2.91-3.19-4.69-7.43-4.69-12.08C504.38,627.83,512.42,619.78,522.32,619.78"/>
	<path class="st1" d="M535.57,625.65l-0.23,0.23l-5.93,5.93l-4.48,4.48l-5.66,5.66l-4.41,4.41l-4.54,4.54l-0.08,0.08
		c3.19,2.91,7.43,4.69,12.08,4.69c9.89,0,17.94-8.05,17.94-17.94C540.26,633.08,538.48,628.84,535.57,625.65"/>
	<path class="st1" d="M535.57,625.65l3.9-3.9c0.33-0.32,0.33-0.85,0-1.18c-0.32-0.32-0.85-0.32-1.18,0l-3.9,3.9
		C534.8,624.84,535.2,625.24,535.57,625.65"/>
	<path class="st1" d="M509.06,649.8l-3.9,3.9c-0.32,0.33-0.32,0.85,0,1.18c0.16,0.16,0.38,0.24,0.59,0.24
		c0.21,0,0.42-0.08,0.59-0.24l3.9-3.9C509.83,650.6,509.44,650.21,509.06,649.8"/>
	<g>
		<defs>
			<rect id="SVGID_13_" x="335.45" y="614.99" width="34.79" height="43.8"/>
		</defs>
		<clipPath id="SVGID_14_">
			<use xlink:href="#SVGID_13_"  style="overflow:visible;"/>
		</clipPath>
		<path class="st13" d="M349.8,638.05l5.66-5.66l4.48-4.48l5.93-5.93l4.13-4.13c0.33-0.33,0.33-0.85,0-1.18
			c-0.32-0.32-0.85-0.32-1.18,0L335.7,649.8c-0.33,0.33-0.33,0.85,0,1.18c0.16,0.16,0.38,0.24,0.59,0.24c0.21,0,0.43-0.08,0.59-0.24
			l3.98-3.98l4.54-4.54L349.8,638.05z"/>
		<path class="st13" d="M362.9,617.82c-5.85-4.58-14.92-2.74-18.79,3.48c-2.43,3.91-2.46,8.89-0.85,13.1
			c0.25,0.64,1.24,0.26,0.99-0.39c-2.92-7.64,0.74-16.05,9.11-17.54c7.26-1.29,15.09,5.59,14.05,13.07
			c-0.6,4.32-3.64,7.96-5.92,11.49c-1.9,2.93-2.76,6.25-3.4,9.64c-0.59,3.13-1.34,5.69-4.78,6.49c-3.38,0.79-6.8-0.87-7.49-4.45
			c-0.13-0.67-1.19-0.57-1.06,0.11c1.1,5.69,8.81,7.74,12.58,3.24c1.76-2.1,1.79-5.5,2.39-8.04c1.13-4.84,4.31-8.41,6.65-12.66
			c1.59-2.89,2.67-6.15,1.96-9.46C367.66,622.71,365.42,619.8,362.9,617.82"/>
		<path class="st14" d="M362.9,617.82c-5.85-4.58-14.92-2.74-18.79,3.48c-2.43,3.91-2.46,8.89-0.85,13.1
			c0.25,0.64,1.24,0.26,0.99-0.39c-2.92-7.64,0.74-16.05,9.11-17.54c7.26-1.29,15.09,5.59,14.05,13.07
			c-0.6,4.32-3.64,7.96-5.92,11.49c-1.9,2.93-2.76,6.25-3.4,9.64c-0.59,3.13-1.34,5.69-4.78,6.49c-3.38,0.79-6.8-0.87-7.49-4.45
			c-0.13-0.67-1.19-0.57-1.06,0.11c1.1,5.69,8.81,7.74,12.58,3.24c1.76-2.1,1.79-5.5,2.39-8.04c1.13-4.84,4.31-8.41,6.65-12.66
			c1.59-2.89,2.67-6.15,1.96-9.46C367.66,622.71,365.42,619.8,362.9,617.82L362.9,617.82z"/>
	</g>
	<path class="st1" d="M359.86,632.15c1.62-2.19,1.29-5.64-0.99-7.3c-2.04-1.48-5.58-0.9-7.2,0.9c-0.46,0.51,0.37,1.18,0.83,0.67
		c1.34-1.48,3.87-1.64,5.6-0.8c2.04,0.99,2.1,4.28,0.93,5.86C358.62,632.03,359.45,632.7,359.86,632.15"/>
	<path class="st15" d="M359.86,632.15c1.62-2.19,1.29-5.64-0.99-7.3c-2.04-1.48-5.58-0.9-7.2,0.9c-0.46,0.51,0.37,1.18,0.83,0.67
		c1.34-1.48,3.87-1.64,5.6-0.8c2.04,0.99,2.1,4.28,0.93,5.86C358.62,632.03,359.45,632.7,359.86,632.15L359.86,632.15z"/>
	<g>
		<defs>
			<rect id="SVGID_15_" x="335.45" y="614.99" width="34.79" height="43.8"/>
		</defs>
		<clipPath id="SVGID_16_">
			<use xlink:href="#SVGID_15_"  style="overflow:visible;"/>
		</clipPath>
		<path class="st16" d="M365.41,620.64c0,0-5.05-6.65-16.56-3.86c0,0-8.68,5.84-6.35,15.76c0,0,1.25,4.93,3.45,7.15L365.41,620.64z"
			/>
		<path class="st17" d="M365.41,620.64c0,0-5.05-6.65-16.56-3.86c0,0-8.68,5.84-6.35,15.76c0,0,1.25,4.93,3.45,7.15L365.41,620.64
			L365.41,620.64z"/>
	</g>
	<path class="st1" d="M431.77,630.11h1.86l2.22,2.35c0.31,0.31,0.84,0.09,0.84-0.35v-7.87c0-0.44-0.53-0.66-0.84-0.35l-2.2,2.28
		h-1.89c-0.27,0-0.49,0.22-0.49,0.49v2.95C431.28,629.89,431.5,630.11,431.77,630.11"/>
	<path class="st1" d="M441.21,623.66c-0.19-0.19-0.5-0.19-0.69,0c-0.19,0.19-0.19,0.5,0,0.69c1.02,1.02,1.58,2.38,1.58,3.82
		s-0.56,2.8-1.58,3.82c-0.19,0.19-0.19,0.5,0,0.69c0.19,0.19,0.5,0.19,0.69,0c1.2-1.2,1.87-2.81,1.87-4.51
		C443.08,626.47,442.41,624.87,441.21,623.66"/>
	<path class="st1" d="M439.82,625.05c-0.19-0.19-0.5-0.19-0.7,0c-0.19,0.19-0.19,0.5,0,0.69c1.34,1.34,1.34,3.52,0,4.86
		c-0.19,0.19-0.19,0.5,0,0.69c0.19,0.19,0.5,0.19,0.7,0C441.55,629.58,441.55,626.78,439.82,625.05"/>
	<g>
		<defs>
			<rect id="SVGID_17_" x="410.02" y="614.99" width="54.29" height="43.8"/>
		</defs>
		<clipPath id="SVGID_18_">
			<use xlink:href="#SVGID_17_"  style="overflow:visible;"/>
		</clipPath>
		<path class="st18" d="M437.74,629.92c0.19,0.19,0.5,0.19,0.7,0c0.46-0.46,0.72-1.08,0.72-1.74s-0.26-1.27-0.72-1.73
			c-0.19-0.19-0.5-0.19-0.7,0c-0.19,0.19-0.19,0.5,0,0.69c0.28,0.28,0.43,0.65,0.43,1.04c0,0.39-0.15,0.77-0.43,1.04
			C437.54,629.41,437.54,629.72,437.74,629.92"/>
		<path class="st18" d="M462.59,643.84c0,1-0.81,1.81-1.81,1.81h-0.03h-47.16c-1,0-1.81-0.81-1.81-1.81v-3.44h50.81V643.84z
			 M411.77,618.56c0-1,0.81-1.81,1.81-1.81h27.01h2.7h17.45c1,0,1.81,0.81,1.81,1.81v20.09h-50.78v-5.19v-2.7V618.56z
			 M460.75,614.99H443.3h-2.7h-27.01c-1.97,0.01-3.56,1.6-3.57,3.57v12.2v2.7v10.38c0,1.97,1.6,3.56,3.57,3.57h22.72v6.52
			c-5.51,0.14-10.96,1.22-16.11,3.19c-0.44,0.21-0.62,0.73-0.42,1.17c0.19,0.41,0.68,0.61,1.1,0.45c0.16-0.07,16.49-6.79,32.61,0
			c0.11,0.05,0.22,0.07,0.34,0.07c0.48,0,0.88-0.39,0.87-0.88c0-0.35-0.21-0.67-0.53-0.8c-5.11-2.12-10.58-3.21-16.11-3.21v-6.5
			h22.69c1.97-0.01,3.56-1.6,3.57-3.57v-25.28C464.31,616.59,462.71,614.99,460.75,614.99"/>
	</g>
</g>
</svg>
