<?xml version="1.0" standalone="no"?>
<!DOCTYPE svg PUBLIC "-//W3C//DTD SVG 20010904//EN"
 "http://www.w3.org/TR/2001/REC-SVG-20010904/DTD/svg10.dtd">
<svg version="1.0" xmlns="http://www.w3.org/2000/svg"
 width="260.000000pt" height="260.000000pt" viewBox="0 0 260.000000 260.000000"
 preserveAspectRatio="xMidYMid meet">
<metadata>
Created by potrace 1.11, written by Peter Selinger 2001-2013
</metadata>
<g transform="translate(0.000000,260.000000) scale(0.100000,-0.100000)"
fill="#000000" stroke="none">
<path d="M1443 2210 c-153 -40 -315 -129 -434 -238 l-56 -51 -7 61 c-3 33 -6
96 -6 139 l0 79 -455 0 -455 0 0 -30 0 -29 137 -3 138 -3 3 -1018 2 -1017
-140 0 -140 0 0 -30 0 -30 590 0 590 0 0 30 0 30 -125 0 -125 0 0 864 0 864
61 56 c66 62 124 95 208 120 69 20 123 20 192 0 103 -30 152 -89 191 -230 22
-78 22 -90 26 -876 l3 -798 -125 0 -126 0 0 -30 0 -30 590 0 590 0 0 29 c0 27
-2 28 -58 34 -101 9 -167 55 -198 137 -16 40 -18 121 -24 765 -6 632 -9 728
-24 785 -58 223 -199 366 -414 421 -103 26 -307 26 -409 -1z"/>
</g>
</svg>
