<svg xmlns="http://www.w3.org/2000/svg" width="348" height="216" viewBox="0 0 348 216"><g fill="#19C4CB" fill-rule="evenodd" opacity=".1"><path d="M43.497 179.949v-12.537h260.917v12.537z"/><path d="M6.445 215.988c-2.6 0-4.954-1.525-5.955-3.878a6.14 6.14 0 0 1 1.4-6.828l35.161-34.205V6.268c0-1.65.692-3.263 1.891-4.438C40.137.664 41.799 0 43.505 0H304.41c1.697 0 3.36.664 4.563 1.839 1.194 1.166 1.886 2.783 1.886 4.43v164.808l35.161 34.205c1.848 1.788 2.398 4.488 1.401 6.828-1.001 2.353-3.352 3.878-5.955 3.878H6.445zm43.501-42.307c0 1.65-.692 3.272-1.89 4.438l-26.044 25.328h303.886l-26.047-25.328a6.235 6.235 0 0 1-1.887-4.438V12.537H49.946V173.68z"/><path d="M130.894 196.118c0-2.11.959-3.816 2.145-3.816h84.14c1.178 0 2.145 1.705 2.145 3.816 0 2.111-.967 3.832-2.145 3.832h-84.14c-1.186 0-2.145-1.72-2.145-3.832zM153.736 114.511L128.664 90.14c-2.092-2.048-2.1-5.35 0-7.397l25.072-24.372c2.093-2.039 5.496-2.039 7.593 0a5.12 5.12 0 0 1 0 7.384l-21.265 20.686 21.265 20.682a5.11 5.11 0 0 1 0 7.388 5.42 5.42 0 0 1-3.794 1.534 5.405 5.405 0 0 1-3.799-1.534zM186.453 114.52a5.135 5.135 0 0 1 0-7.397l21.265-20.69L186.46 65.76a5.137 5.137 0 0 1-.008-7.393c2.097-2.035 5.504-2.035 7.605 0l25.06 24.376c1.005.99 1.576 2.298 1.576 3.698 0 1.396-.571 2.7-1.577 3.694l-25.059 24.376.009.008a5.475 5.475 0 0 1-3.812 1.534 5.44 5.44 0 0 1-3.802-1.534z"/></g></svg>