<svg xmlns="http://www.w3.org/2000/svg" width="275" height="281" viewBox="0 0 275 281"><g fill="#19C4CB" fill-rule="evenodd" opacity=".1"><path d="M137.405 267.6h-91.8l29.057-17.196C37.34 228.32 12.223 187.177 12.223 140.028c0-70.456 56.044-127.568 125.182-127.568S262.59 69.572 262.59 140.028c0 70.452-56.047 127.571-125.185 127.571M137.408 0C61.518 0 0 62.692 0 140.028c0 44.131 20.054 83.47 51.358 109.137L0 280.06h137.408c75.89 0 137.412-62.692 137.412-140.032C274.82 62.692 213.29 0 137.408 0"/><path d="M207.59 102.544v4.405l-70.185 39.83-70.185-39.83v-4.405h140.37zm-41.204 39.636l41.207-23.382v61.74l-41.207-38.358zM67.22 179.966v-61.179l40.87 23.142-40.87 38.037zm50.16-32.777l20.11 11.385 19.613-11.13 43.344 40.448H73.757l43.622-40.703zm95.294-54.99H62.143c-2.803 0-5.077 2.318-5.077 5.175v95.695c0 2.85 2.274 5.167 5.077 5.167h150.53c2.804 0 5.074-2.321 5.074-5.167V97.374c0-2.857-2.27-5.174-5.073-5.174z"/></g></svg>