<svg xmlns="http://www.w3.org/2000/svg" width="230" height="279" viewBox="0 0 230 279"><g fill="#19C4CB" fill-rule="evenodd" opacity=".1"><path d="M11.963 46.79v115.96c0 57.695 46.18 104.625 102.927 104.625 56.748 0 102.928-46.93 102.928-104.625V46.79c-52.608 2.163-78.751-10.869-102.928-33.084C90.725 35.956 64.684 48.93 11.963 46.79M114.89 279C51.83 279 .526 226.85.526 162.75V40.687c0-1.604.652-3.138 1.796-4.22 1.155-1.104 2.767-1.697 4.265-1.58 55.273 3.348 80.295-10.033 104.37-33.283a5.626 5.626 0 0 1 7.867 0c24.062 23.262 49.188 36.619 104.38 33.283a5.753 5.753 0 0 1 4.255 1.58c1.155 1.093 1.795 2.64 1.795 4.22V162.75c0 64.1-51.304 116.25-114.364 116.25"/><path d="M34.835 139.5h68.619V50.336c-14.879 11.23-38.838 18.17-68.619 19.623V139.5zm74.337 11.625H29.117c-3.156 0-5.718-2.616-5.718-5.813V64.368c0-3.15 2.47-5.731 5.57-5.813 36.813-.953 65.05-10.486 75.537-25.493a5.703 5.703 0 0 1 6.404-2.186c2.38.744 3.98 3.01 3.98 5.545v108.892c0 3.196-2.562 5.812-5.718 5.812zM126.327 174.375v65.1c38.643-6.766 60.761-36.06 66.765-65.1h-66.765zm-5.719 77.585a5.643 5.643 0 0 1-3.82-1.488 5.884 5.884 0 0 1-1.898-4.324v-77.585c0-3.197 2.562-5.813 5.718-5.813h79.255c1.646 0 3.19.732 4.288 1.965a5.88 5.88 0 0 1 1.373 4.58c-5.547 44.651-39.433 77.83-84.32 82.63a4.957 4.957 0 0 1-.596.035z"/></g></svg>