<svg xmlns="http://www.w3.org/2000/svg" width="228" height="23" viewBox="0 0 228 23"><g fill="#25282a" fill-rule="evenodd"><path d="M54.173 21.6H56v.4h-8v-.4h1.827V.4H48V0h6.173zM1.843 8.605H0v-.393h6.07c0 .665.03 1.118.063 1.481v.333a7.943 7.943 0 0 1 1.874-1.33A5.91 5.91 0 0 1 10.772 8c2.86 0 4.385 1.512 4.385 4.536v6.924c.064.575-.286 2.147 1.843 2.147V22H9.088v-.393h1.652v-8.678c0-2.208-.318-3.568-2.16-3.568-.573 0-1.113.242-1.494.453-.413.272-.73.575-.89.786v11.007H7.85V22H0v-.393h1.843V8.605zM38.09 9.562c.217-.349.62-.76 1.273-1.14.621-.348 1.491-.57 2.486-.57 1.118 0 2.702.538 3.945 1.773C47.068 10.86 48 12.759 48 15.482c0 2.818-.994 4.686-2.268 5.857-1.274 1.204-2.858 1.584-4.008 1.647-1.708.095-2.951-.317-3.914-.38-1.367-.095-5.655 0-5.655 0H32v-.412h1.802V.412H32V0h6.09v9.562zm0 10.86c.372.696 1.025 1.424 1.988 1.424 1.336 0 2.174-1.076 2.672-2.438.434-1.33.559-3.008.559-4.147 0-1.71-.31-3.293-.808-4.433-.497-1.14-1.274-1.868-2.206-1.868-.994 0-1.864.728-2.175 1.425V20.42h-.03zM32 15.234c0 2.16-.628 4.102-1.914 5.511C28.799 22.123 26.885 23 24.374 23c-2.51 0-4.33-.814-5.554-2.13-1.224-1.315-1.82-3.225-1.82-5.417 0-2.13.722-3.977 2.071-5.324C20.358 8.814 22.21 8 24.531 8c2.197 0 4.111.72 5.43 1.973 1.286 1.252 2.039 3.1 2.039 5.26zm-7.5-6.796c-.91 0-1.6.564-2.071 1.754-.47 1.19-.722 2.85-.722 4.948 0 2.098.157 3.946.596 5.292.44 1.315 1.161 2.13 2.228 2.13 1.005 0 1.695-.815 2.134-2.161.44-1.315.565-3.194.565-5.261 0-2.098-.22-3.727-.596-4.917-.408-1.19-1.13-1.785-2.134-1.785zM66.277 20.208c-.492.345-1.23.565-2.062.565-1.384 0-2.246-.847-2.83-1.976a7.81 7.81 0 0 1-.862-3.42c1.785.032 5.262.032 7.477 0 0 0 0-1.473-.215-2.76-.247-1.568-1.385-3.23-2.339-3.826-.923-.565-1.354-.722-2.677-.784-1.938-.094-3.661.815-4.83 2.195C56.707 11.582 56 13.496 56 15.66c0 1.82.492 3.639 1.538 5.019C58.585 22.059 60.092 23 62.123 23c1.662 0 2.923-.533 3.785-1.286.892-.721 1.446-1.6 1.692-2.321l-.37-.22c-.092.314-.46.722-.953 1.035zm-5.015-9.912c.4-1.035.83-1.505 1.23-1.505s.862.376 1.2 1.505c.277.941.554 2.541.554 4.768h-3.661c0-2.195.277-3.764.677-4.768zM75 8.279v-.403h6.173v13.721H83V22h-8v-.403h1.827V8.28H75zM79 1c-1.291 0-2.33 1.022-2.33 2.292 0 1.239 1.039 2.261 2.33 2.261 1.291 0 2.3-1.053 2.3-2.261C81.33 2.022 80.322 1 79 1zM84.871 8.605h-1.84v-.393h6.059c0 .665.031 1.118.063 1.481v.333a7.928 7.928 0 0 1 1.871-1.33A5.89 5.89 0 0 1 93.784 8c2.854 0 4.376 1.512 4.376 4.536v6.924c.064.575-.285 2.147 1.84 2.147V22h-7.897v-.393h1.649v-8.678c0-2.208-.317-3.568-2.157-3.568-.57 0-1.11.242-1.49.453-.413.272-.73.575-.889.786v11.007h1.65V22H83v-.393h1.84V8.605h.031zM107.992 21.946c-.463.465-1.653 1.054-3.042 1.054-.925 0-2.082-.093-2.975-.713-.892-.62-1.554-1.798-1.554-3.905V8.928H99v-.403h1.421V6.604c.926 0 1.885-.28 2.645-.744.76-.434 1.322-1.116 1.422-1.86h.462v4.556h2.91v.403h-2.91V20.21c0 1.395.628 1.984 1.422 1.984.628 0 1.09-.279 1.322-.465.033.062.1.124.132.155.133.031.199.062.166.062z"/><path d="M117.277 20.208c-.492.345-1.23.565-2.062.565-1.384 0-2.246-.847-2.83-1.976a7.81 7.81 0 0 1-.862-3.42c1.785.032 5.262.032 7.477 0 0 0 0-1.473-.215-2.76-.247-1.568-1.385-3.23-2.339-3.826-.923-.565-1.354-.722-2.677-.784-1.938-.094-3.661.815-4.83 2.195-1.231 1.38-1.939 3.294-1.939 5.458 0 1.82.492 3.639 1.538 5.019 1.047 1.38 2.554 2.321 4.585 2.321 1.662 0 2.923-.533 3.785-1.286.892-.721 1.446-1.6 1.692-2.321l-.37-.22c-.092.283-.46.69-.953 1.035zm-5.015-9.943c.4-1.035.83-1.506 1.23-1.506s.862.377 1.2 1.506c.277.941.554 2.54.554 4.768h-3.661c0-2.196.277-3.733.677-4.768zM121.811 8.605H120v-.393h6.07c0 .665.03 1.118.063 1.481v.333a7.943 7.943 0 0 1 1.874-1.33A5.91 5.91 0 0 1 130.772 8c2.86 0 4.385 1.512 4.385 4.536v6.924c.064.575-.286 2.147 1.843 2.147V22h-7.88v-.393h1.652v-8.678c0-2.208-.318-3.568-2.16-3.568-.573 0-1.113.242-1.494.453-.413.272-.731.575-.89.786v11.007h1.652V22H120v-.393h1.843V8.605h-.032zM144.992 21.946c-.463.465-1.653 1.054-3.042 1.054-.925 0-2.082-.093-2.975-.713-.892-.62-1.554-1.798-1.554-3.905V8.928H136v-.403h1.421V6.604c.926 0 1.885-.28 2.645-.744.76-.434 1.322-1.116 1.422-1.86h.462v4.556h2.91v.403h-2.91V20.21c0 1.395.628 1.984 1.422 1.984.628 0 1.09-.279 1.322-.465.033.062.1.124.132.155.133.031.199.062.166.062zM204 8.299v-.402h6.173v13.7H212V22h-8v-.402h1.827V8.299H204zM208.031 1c-1.29 0-2.33 1.02-2.33 2.289 0 1.237 1.04 2.257 2.33 2.257 1.292 0 2.3-1.051 2.3-2.257A2.278 2.278 0 0 0 208.03 1zM185.157 22.398H187v.391h-6.07c0-.662-.03-1.114-.063-1.475v-.331a7.942 7.942 0 0 1-1.874 1.325 5.93 5.93 0 0 1-2.765.692c-2.86 0-4.385-1.505-4.385-4.516v-6.895c-.064-.572.286-2.228-1.843-2.228V9h7.88v.391h-1.652v8.762c0 2.198.318 3.552 2.16 3.552.573 0 1.113-.24 1.494-.451.413-.271.731-.572.89-.783V9.421h-1.652v-.39H187v.39h-1.843v12.977zM197.91 0h4.288v22.2H204v.412h-.155s-4.288-.095-5.655 0c-.932.064-2.206.444-3.914.38-1.18-.063-2.734-.443-4.008-1.648-1.274-1.205-2.268-3.045-2.268-5.867 0-2.728.963-4.662 2.206-5.868 1.274-1.236 2.858-1.776 3.945-1.776.995 0 1.865.254 2.486.571.621.38 1.056.793 1.274 1.142V.444h-1.74v-.38L197.91 0zm0 10.339c-.341-.698-1.211-1.427-2.174-1.427-.963 0-1.709.73-2.206 1.87-.497 1.143-.808 2.728-.808 4.44 0 1.143.125 2.823.56 4.155.466 1.364 1.304 2.442 2.671 2.442.964 0 1.616-.729 1.989-1.427V10.34h-.031z"/><path d="M170.991 21.948c-.463.464-1.653 1.052-3.04 1.052-.927 0-2.083-.093-2.976-.712-.892-.619-1.554-1.795-1.554-3.899V8.951H162V8.55h1.421v-1.95c.926 0 1.885-.278 2.645-.742.76-.434 1.322-1.114 1.421-1.857h.463v4.549h2.909v.402h-2.843v11.233c0 1.393.628 1.98 1.422 1.98.628 0 1.09-.278 1.322-.464.033.062.099.124.132.155.066.031.132.093.1.093zM228 15.234c0 2.16-.628 4.102-1.914 5.511-1.287 1.378-3.201 2.255-5.712 2.255-2.51 0-4.33-.814-5.554-2.13-1.224-1.315-1.82-3.225-1.82-5.417 0-2.13.722-3.977 2.071-5.324C216.358 8.814 218.21 8 220.531 8c2.197 0 4.111.72 5.43 1.973 1.286 1.221 2.039 3.069 2.039 5.26zm-7.5-6.796c-.91 0-1.6.564-2.071 1.754-.47 1.19-.722 2.85-.722 4.948 0 2.098.157 3.946.596 5.292.44 1.315 1.161 2.13 2.228 2.13 1.005 0 1.695-.815 2.134-2.161.44-1.315.565-3.194.565-5.261 0-2.098-.22-3.727-.596-4.917-.408-1.19-1.13-1.785-2.134-1.785zM159.957 15.203c-.716-.81-1.79-1.37-3.189-1.869-.976-.343-1.79-.654-2.408-1.06-.618-.404-.943-1.183-.943-1.962 0-1.06 1.073-1.838 2.147-1.963.52-.062 1.855-.03 2.896.405-1.106.094-1.952.966-1.952 2.025 0 1.09.943 2.025 2.147 2.025 1.204 0 2.115-.934 2.115-2.025 0-.685-.325-1.277-.846-1.65 0 0-.032-.032-.065-.032 0 0-.032 0-.032-.031-1.074-.748-3.092-1.122-4.36-1.06-1.4.063-2.669.53-3.547 1.371-.911.873-1.432 2.088-1.432 3.52 0 1.278.423 1.964 1.171 2.68.749.748 1.79 1.246 3.06 1.682.65.25 1.496.499 2.147.966.618.467 1.106 1.34 1.106 2.18 0 .686-.358 1.185-.846 1.559-.488.373-1.204.498-1.822.592-.814.124-1.887.093-2.7-.125 1.105-.156 1.919-1.06 1.919-2.119 0-1.215-.976-2.18-2.245-2.18-1.27 0-2.278.965-2.278 2.18 0 .561.26 1.09.65 1.496l.066.062c.976.904 3.156 1.184 4.718 1.122 1.4-.063 2.798-.436 3.84-1.246 1.04-.81 1.724-1.963 1.724-3.49.033-1.495-.325-2.212-1.041-3.053z"/></g></svg>